<?xml version="1.0" standalone="no"?>
<!DOCTYPE svg PUBLIC "-//W3C//DTD SVG 1.1//EN" "http://www.w3.org/Graphics/SVG/1.1/DTD/svg11.dtd">
<svg xmlns="http://www.w3.org/2000/svg">
<metadata>Generated by Fontastic.me</metadata>
<defs>
<font id="comappicon" horiz-adv-x="512">
<font-face font-family="comappicon" units-per-em="512" ascent="480" descent="-32"/>
<missing-glyph horiz-adv-x="512" />

<glyph glyph-name="activity-assist" unicode="&#97;" d="M451 241c34 0 61-27 61-61 0-34-27-61-61-61-33 0-61 27-61 61 0 34 28 61 61 61z m-158 134l0-1c-1 0-1-1-1-1l-100-96-59-119-3-3c-30-21-76-55-95-70 5-7 11-14 15-19l108 69 38 61c8 9 22 11 32 4l61-52c8-6 11-19 5-29l-33-54 28-19 50 94-93 81c-4 4-7 9-9 14-1 6 1 12 4 17l2 2 92 92z m-54 70c2 0 3 0 4 0l4-1 173-120 66 64c6 6 16 5 22-1 3-3 4-7 4-11l0-1 0 0c0-5-1-9-5-12l-77-74-6 0c-7 0-13 3-17 7l-46 32-89-89 90-80c9-6 12-19 6-29l-56-105c-4-6-9-10-15-12-2 0-4 0-6 0-4 0-9 1-12 3l-41 27c-10 7-13 20-7 31l33 55-48 41-36-57c-3-4-7-7-12-8l-115-73-5 0c-7 0-12 0-44 42-6 7-5 18 2 25 14 15 86 66 103 79l58 117 101 97-30 21-119-35c-8-2-16 3-19 11-2 8 2 16 10 19l118 34c3 2 7 3 11 3z m151 24c-17 0-30-14-30-30 0-17 13-31 30-31 17 0 31 14 31 31 0 16-14 30-31 30z m0 30c34 0 61-27 61-60 0-34-27-61-61-61-33 0-61 27-61 61 0 33 28 60 61 60z"/>
<glyph glyph-name="activity-board" unicode="&#98;" d="M46 160l420 0 0-38-74 0 22-122-44 0-22 122-68 0 0-122-44 0 0 122-71 0-22-122-44 0 22 122-75 0z m252 48l87 0 0-24-87 0z m-229 219l374 0 0-244-28 0 0 213-316 0 0-213-30 0z m163 85l50 0 0-59-50 0z"/>
<glyph glyph-name="activity-cards" unicode="&#99;" d="M459 423l-94 25 0-41 84-22c10-3 17-14 14-24l-81-307c-3-10-14-17-25-14l-63 17c-3 0-5-1-8-1l-140 0c3-1 6-2 10-3l191-51c32-8 65 11 73 42l81 307c8 31-10 64-42 72z m-173 89l-218 0c-32 0-59-27-59-59l0-317c0-33 27-60 59-60l218 0c33 0 60 27 60 60l0 317c0 32-27 59-60 59z m20-376c0-11-9-20-20-20l-218 0c-11 0-19 9-19 20l0 317c0 10 8 19 19 19l218 0c11 0 20-9 20-19z m-42 150c0-27-18-45-44-45-14 0-28 9-35 17 0 0 7-34 20-59 2-4-56-4-55 0 13 27 20 59 20 59-8-7-23-17-35-17-26 0-45 17-45 45 0 46 87 106 87 106l0 0c0 0 87-60 87-106z m1 164c0 1 0 1-1 2 0 0-1 1-2 1l-11 0c-2 0-2-1-3-1 0-1-1-1-1-2l-17-55c0-1 0-1 0-1 0-1 0-1 1-1l10 0c1 0 2 0 2 1 0 0 1 1 1 2l3 11 18 0 3-11c0-1 1-2 1-2 0-1 1-1 2-1l11 0c1 0 1 0 1 1 1 0 1 1 0 1z m-15-33l3 10 3 11 0 0 3-11 3-10z m-137-222c-1 0-2 0-2-1-1 0-1-1-1-2l-3-10-18 0-3 11c-1 1-1 1-1 2-1 0-2 0-2 0l-10 0c-1 0-1 0-2 0 0-1 0-1 0-2l18-55c0-1 0-1 1-2 0 0 1 0 2 0l11 0c2 0 2 0 3 0 0 1 1 2 1 2l18 55c0 1 0 1 0 2 0 0-1 0-1 0z m-12-34l-3-11 0 0-3 11-3 10 12 0z m322 207c0 1-1 2-1 2 0 1-1 1-2 2l-11 3c-1 0-2 0-2 0-1-1-1-1-2-2l-31-48c0-1 0-2 0-2 0 0 0 0 1-1l9-2c1 0 2 0 3 0 0 0 1 0 1 1l6 10 17-5 0-11c0-1 1-1 1-2 0 0 1-1 2-1l10-3c1 0 1 0 2 0 0 1 0 1 0 2z m-23-27l5 9 6 9 0 0 0-11 0-10z"/>
<glyph glyph-name="activity-cards-2" unicode="&#100;" d="M366 91c-5 0-10-3-13-10-3-5-2-11 0-16 2-3 3-4 5-8 3-4 6-9 5-11 1 2 6 3 12 3 7 2 16 4 21 13 6 16-8 26-19 14 0 10-5 15-11 15z m-58 190c-14 0-28-10-36-32-7-16-2-31 5-43 4-8 9-15 12-21 11-14 19-26 18-32 3 5 17 8 33 14 18 7 46 13 54 39 16 46-28 70-57 36 2 24-13 37-29 39z m-19 97c-5 0-9-3-12-10-4-5-2-11 0-16 1-3 3-5 4-8 3-5 7-9 5-11 2 2 6 3 13 3 6 2 16 3 21 13 6 16-8 26-20 14 0 10-4 15-11 15z m-255 17c0-1 0-8-3-12-3-5-8-12-3-18 6-11 19-8 19 3 2-5 5-13-5-21l26 15c0 0-11-3-19 6 9-6 19 3 12 15-3 6-11 6-16 6-4 1-11 5-11 6z m125 5l-16-24 17-19 16 21z m143 11c8 0 14-1 22-5l147-55c33-13 49-50 37-83l-80-207c-13-34-49-50-83-37l-147 56c-33 12-49 49-36 83l79 207c10 25 36 41 61 41z m24 30c21 0 40-9 51-25l2-2-45 18c-10 3-21 6-32 6-37 0-70-24-84-57l-80-207c-8-23-8-47 1-69 2-3 4-5 5-8l0-1-1 1c-15 11-26 29-26 48l-11 220c-2 35 25 65 61 67l156 8c0 1 1 1 3 1z m-120 51c21 0 42-9 53-27l2-1-98-5c-22-2-44-13-60-30-16-18-24-42-23-64l12-218-86 192c-15 32 0 71 33 85l143 62c8 5 16 6 24 6z"/>
<glyph glyph-name="activity-chess-3" unicode="&#101;" d="M448 64l64 0 0-64-64 0z m-128 0l64 0 0-64-64 0z m-128 0l64 0 0-64-64 0z m-128 0l64 0 0-64-64 0z m320 64l64 0 0-64-64 0z m-128 0l64 0 0-64-64 0z m-128 0l64 0 0-64-64 0z m-128 0l64 0 0-64-64 0z m448 64l64 0 0-64-64 0z m-128 0l64 0 0-64-64 0z m-128 0l64 0 0-64-64 0z m-128 0l64 0 0-64-64 0z m320 64l64 0 0-64-64 0z m-128 0l64 0 0-64-64 0z m-128 0l64 0 0-64-64 0z m-128 0l64 0 0-64-64 0z m448 64l64 0 0-64-64 0z m-128 0l64 0 0-64-64 0z m-128 0l64 0 0-64-64 0z m-128 0l64 0 0-64-64 0z m320 64l64 0 0-64-64 0z m-128 0l64 0 0-64-64 0z m-128 0l64 0 0-64-64 0z m-128 0l64 0 0-64-64 0z m448 64l64 0 0-64-64 0z m-128 0l64 0 0-64-64 0z m-128 0l64 0 0-64-64 0z m-128 0l64 0 0-64-64 0z m320 64l64 0 0-64-64 0z m-128 0l64 0 0-64-64 0z m-128 0l64 0 0-64-64 0z m-128 0l64 0 0-64-64 0z"/>
<glyph glyph-name="activity-chess-horse" unicode="&#102;" d="M381 79c-10 11-6 48-6 48 0 0 20 85 30 104 11 20 11 76 11 76 0 0-2 35-17 77-15 43-68 79-104 84-3 20-35 44-35 44 0 0 5-43 0-44-6-1-30-8-30-8l5-17c-31-10-43-18-43-18 0 0-1-2-7-14-5-11-74-66-77-70-3-3-1-10-1-10 0 0-2-15-2-16-1 0-3-11 1-16 3-5 6-10 14-17 7-6 9-2 9-2 0 0 1-2 22-5 26-1 35 18 35 18 0 0 7 14 27 10 40-21 68-5 68-5 0 0-33-27-82-99-48-71-14-120-14-120l196 0z m19-78c0-5-4-9-8-9l-221 0c-4 0-8 4-8 9l0 62c0 5 4 8 8 8l221 0c4 0 8-3 8-8l0-62z"/>
<glyph glyph-name="activity-chess-king" unicode="&#103;" d="M225 256l0-2c1-84-26-174-42-220l0-2 145 0-1 2c-16 46-42 136-41 220l0 2z m-41 48l0-16 144 0 0 16z m72 96l0-32-43 0c-1 0-4 0-8 0-3 0-6-2-7-4-2-3-2-6-1-9 2-5 4-11 6-16l0-3 106 0 0 3c2 5 4 11 6 16 1 3 1 6-1 9-1 2-4 4-7 4-4 1-7 0-7 0l-44 0z m-16 112l32 0 0-32 32 0 0-32-32 0 0-48 27 0c0 0 0 0 2 0 2 0 6 0 10 0 13-2 24-9 31-19 6-11 7-24 3-37-1-2-1-4-2-6l-1-2 18 0 0-80-42 0 0 0c-2-86 29-182 43-222l1-2 22 0c9 0 16-7 16-16 0-9-7-16-16-16l-256 0c-9 0-16 7-16 16 0 9 7 16 16 16l21 0 1 2c14 40 44 136 43 222l0 0-41 0 0 80 18 0-1 2c-1 2-1 4-2 6-4 13-3 26 3 37 7 10 18 17 31 19 7 1 13 0 13 0l26 0 0 48-32 0 0 32 32 0z"/>
<glyph glyph-name="activity-chess-king-2" unicode="&#104;" d="M229 445l52 0c5 0 8-4 8-8l0-7 14 0c15 0 26-13 26-27 0-7-3-13-7-18-4-6-32-48-32-48l4-48 8 0c1 0 9-5 11-15 0-8-8-12-8-12l-18 0c0-2 0-5-1-7 4-74 22-96 40-136l0-2 1 0c2 0 7-1 8-6 2-5-3-8-5-8l-1-2 0-1c8-13 16-29 18-44 1-14-4-24-10-34l0-4c2-2 5-5 6-7 2-3 2-11 2-11l-177 0c0 0 0 8 2 11 2 3 6 7 6 7l0 3c-8 9-11 24-11 38 2 15 11 29 19 42l0 3c-1 0-6 4-4 8 1 7 6 7 8 7l1 0 0 3c18 42 32 64 37 141 0 2-1 2-1 3l-18 0c-2 0-10 5-10 13 2 10 10 15 12 15l8 0 3 41c0 0-29 42-32 50-4 5-7 11-7 18 0 14 11 27 26 27l14 0 0 7c2 4 5 8 8 8z m16 67l16 0 0-14 17 0 0-13-17 0 0-29-16 0 0 29-14 0 0 13 14 0z"/>
<glyph glyph-name="activity-chess-queen" unicode="&#105;" d="M225 256l0-4c-1-85-31-175-46-218l-1-2 155 0 0 2c-16 43-46 133-47 218l0 4z m28 143c-27-1-48-15-59-25l21-54-9-15-10-1-20 0 0-16 160 0 0 16-28 0-6 8c-3 5-4 11-2 16l19 45c-24 19-47 26-66 26z m3 81c-9 0-16-7-16-16 0-9 7-16 16-16 9 0 16 7 16 16 0 9-7 16-16 16z m0 32c26 0 48-22 48-48 0-15-7-28-17-37l-1-1 0 0c20-5 41-16 62-35 6-5 8-13 5-20l-15-35 12 0c10 0 18-8 18-18l0-44c0-10-8-18-18-18l-32 0 0-6c2-89 37-186 50-218l0 0 16 0c9 0 16-7 16-16 0-9-7-16-16-16l-256 0c-9 0-16 7-16 16 0 9 7 16 16 16l16 0 0 0c12 32 47 129 49 218l0 6-31 0c-10 0-18 8-18 18l0 44c0 10 8 18 18 18l13 0-14 35c-3 6-1 13 3 18 13 15 34 30 60 37l2 1-1 0c-10 9-17 22-17 37 0 26 22 48 48 48z"/>
<glyph glyph-name="activity-chess-queen-2" unicode="&#106;" d="M234 445c6-5 14-10 22-10 8 0 14 5 21 8l1 2 2-2c6-5 13-6 21-6 8 0 16 6 19 6 3 2 13 2 18-6 8-11 0-21-7-24-17-15-41-55-38-101l14 0c10 0 16-6 16-16 0-10-6-16-16-16l-14 0c-2-86 48-171 48-171 43-55 9-87 9-87 12-11 10-22 10-22l-208 0c0 0-3 11 10 22 0 0-34 32 9 87 0 0 51 85 50 171l-19 0c-8 0-16 6-16 16 0 8 6 16 16 16l17 0c3 46-21 86-38 99-7 5-15 15-7 26 7 8 15 6 18 6 5-1 11-6 19-6 8 0 16 3 23 8z m24 67c17 0 32-14 32-32 0-18-15-32-32-32-18 0-32 14-32 32 0 18 14 32 32 32z"/>
<glyph glyph-name="activity-chess-tower" unicode="&#107;" d="M170 397l172 0c10 0 19 9 19 19l0 75c0 6-5 10-11 10l-33 0c-5 0-10-4-10-10l0-30-24 0 0 30c0 6-5 10-11 10l-32 0c-6 0-11-4-11-10l0-30-24 0 0 30c0 6-5 10-10 10l-33 0c-6 0-11-4-11-10l0-75c0-10 9-19 19-19z m-26-293l227 0c6 0 11 3 15 7 3 5 5 11 3 17l-56 214c-2 8-9 14-18 14l-116 0c-8 0-16-6-18-14l-56-214c-1-6 0-12 4-17 3-4 9-7 15-7z m231-39l-238 0c-11 0-19-9-19-19l0-17c0-10 8-18 19-18l238 0c11 0 19 8 19 18l0 17c0 10-8 19-19 19z"/>
<glyph glyph-name="activity-christian-cross" unicode="&#108;" d="M438 323l0 0 0 2 0 2 0 0 0 0c-1 25-15 39-40 44-2 11-5 22-9 33-8 2-16 2-23 1-3-24-15-33-33-39l-35 0-1 40c6 19 14 30 38 34 1 7 1 15-1 23-11 4-22 7-33 8-6 25-21 39-45 40l0 0-2 0-2 0 0 0c-25-2-39-16-44-41-11-2-22-5-33-9-2-8-2-15-1-23 24-3 33-14 39-33l0-40-35 0c-18 5-30 13-34 37-7 1-15 1-23-1-4-11-6-22-8-33-25-6-38-20-39-45l0 0 0 0 0-2 0-2 0 0 0-1c1-24 15-38 40-43 2-11 5-22 9-33 8-2 16-2 23-1 3 24 15 33 33 38l34 0 4-212c-6-19-14-30-38-34-1-7-1-15 1-23 11-4 22-7 33-9 0 0 0 0 0 0 31 1 63 6 94 2 10 2 21 5 32 9 2 8 1 15 1 23-24 3-33 14-39 33l-2 212 35 1c18-5 30-14 34-38 7 0 15 0 23 2 4 11 6 22 8 33 25 6 38 20 39 44z m-226-323l0 0c-12 2-23 5-33 9l0 0 0 1c-2 8-2 16-2 23l0 1 1 0c24 4 32 16 37 33l-3 211-33 0c-17-5-28-13-32-37l0-2-1 0c-4 0-7 0-10 0-4 0-9 0-13 1l-1 0 0 1c-4 10-7 21-9 32-26 6-39 21-41 45l0 1 0 0 0 2 0 2 0 0 0 0c1 25 15 40 40 46 2 12 4 23 8 33l0 0 1 1c5 1 10 1 16 1 2 0 4 0 7 0l1 0 1-1c3-24 15-32 32-37l33 1 0 38c-5 17-13 29-37 32l-1 0 0 1c-1 7-1 15 1 23l0 1 0 0c10 4 21 7 33 10 5 25 20 38 44 40l1 0 2 0 2 0c24-1 40-14 46-39 12-2 22-5 33-9l0 0 0-1c2-8 2-16 2-23l0-1-1 0c-24-4-32-16-37-33l1-38 33 0c17 5 28 13 32 37l0 1 1 0c4 1 7 1 10 1 4 0 9-1 13-2l1 0 0 0c4-10 7-21 9-33 26-5 39-20 41-44l0-1 0 0 0 0 0-2 0-2 0 0 0-1 0 0c-1-24-15-39-40-45-2-12-5-23-8-33l0-1-1 0c-5-1-10-1-16-1 0 0 0 0 0 0-2 0-4 0-7 0l-1 0-1 1c-3 24-15 32-32 37l-33-1 1-211c6-17 14-29 38-32l1 0 0-1c1-7 1-15-1-23l0-1 0 0c-11-4-21-7-33-10l0 0-1 0c-8 1-17 2-27 2-12 0-25-1-37-2-9 0-19-1-29-1z m-31 11c10-4 21-6 32-8l0 0c10 0 20 1 29 1 12 1 24 2 37 2 10 0 19-1 28-2 11 2 21 5 31 9 1 7 1 14 1 20-25 4-34 17-39 34l0 1-2 214 36 1 0-1c18-5 31-13 35-38 2 0 4 0 6 0l0 0c6 0 10 1 15 2 3 10 6 20 8 32l0 1 1 0c25 6 37 20 38 43l0 1 0 0 0 2 0 2 0 0 0 0c-2 24-14 38-39 43l-1 0 0 1c-2 12-5 22-9 32-4 1-8 1-12 1-3 0-6 0-9 0-4-25-16-34-34-39l0 0-36 0-1 41 0 0c5 18 14 31 38 35 0 7 0 13-1 21-10 3-21 6-32 8l-1 0 0 1c-6 25-20 37-44 38l-2 0-2 0 0 0c-24-1-38-14-43-39l0-1-1 0c-12-2-22-5-32-9-1-7-1-14-1-21 25-3 34-16 39-34l0 0 0-41-36-1 0 0c-18 5-31 14-35 38-2 0-4 0-6 0-6 0-10 0-15-1-3-10-6-21-8-32l0-1-1 0c-25-6-37-20-38-44l0 0 0 0 0-2 0-2 0 0 0-1c2-23 14-37 39-42l1 0 0-1c2-12 5-22 9-32 4-1 8-1 12-1 3 0 6 0 9 0 4 25 16 33 34 39l0 0 36 0 3-214 0 0c-5-18-14-31-38-35-1-7-1-14 1-21z"/>
<glyph glyph-name="activity-christmas" unicode="&#109;" d="M231 436l25 13 24-13-5 28 20 19-27 4-12 25-13-25-27-4 20-19z m127-117l9 0-111 111-71-71z m-3-85l-21-4c4-2 6-6 6-10 0-6-5-11-12-11-6 0-11 5-11 11 0 3 1 5 3 7l-36-6c8-1 16-8 16-17 0-10-8-17-18-17-9 0-17 7-17 17 0 7 4 13 10 15l-46-8c3-1 6-4 6-8 0-5-5-10-10-10-5 0-10 5-10 10 0 2 1 5 3 6l-105-18-26-26 287-21-15 15 71 0z m-186 12l-34-33 254 45-46 46-68 16c4-4 7-9 7-15 0-11-10-20-21-20-11 0-20 9-20 20 0 9 6 17 14 19l-34 8c1-2 2-4 2-7 0-8-7-14-15-14-8 0-14 6-14 14 0 5 3 9 7 12l-31 7-26-25 39 0-73-73 59 0z m275-172l-51 50-49 4c2-3 4-7 4-11 0-8-7-15-15-15-9 0-15 7-15 15 0 5 2 9 6 12l-85 6c2-2 3-5 3-8 0-7-5-12-12-12-6 0-12 5-12 12 0 4 3 7 6 10l-42 3c5-4 9-10 9-17 0-10-8-19-19-19-10 0-19 9-19 19 0 8 5 15 12 18l-29 2-69-69 166 0-13-73 71 0-13 73z"/>
<glyph glyph-name="activity-christmas-2" unicode="&#110;" d="M255 116c-78-54-160-60-192-60-2 0-3 0-5 0l-21-30c-4-5-4-11-2-17 3-5 9-9 15-9l413 0c6 0 11 4 14 9 1 1 1 2 1 3-37 2-126 17-223 104z m98 147l-24 34 1 0c6 0 12 3 15 9 3 5 2 12-1 17l-12 15c-58-83-146-100-192-103l-35-49c-3-5-4-12-1-17 3-6 9-10 15-10l12 0-57-81c55 2 197 22 279 185z m-80-134c83-72 159-90 197-94l-89 124 13 0c6 0 12 4 15 10 2 5 2 12-2 17l-40 57c-27-50-59-87-94-114z m46 229l-18 24c-3-1-8-2-12-2-4 0-8 1-12 3l-21 10-20-10c-4-2-8-3-13-3-4 0-8 1-12 2l-42-59c-4-5-4-12-1-17 3-6 8-9 14-9l2 0-27-39c45 6 115 27 162 100z m-94 83l-6-34c-1-1 0-3 2-4 0-1 1-1 2-1 1 0 2 0 3 0l30 16 31-16c1 0 2 0 2 0 1 0 2 0 3 1 1 1 2 3 2 4l-6 34 25 24c1 2 2 4 1 5-1 2-2 3-4 3l-34 5-16 31c0 2-2 3-4 3-1 0-3-1-4-3l-15-31-35-5c-1 0-3-1-3-3-1-1 0-3 1-5z"/>
<glyph glyph-name="activity-christmas-santaclaus" unicode="&#111;" d="M265 122c11 0 21 4 29 11 6 5 2 15-6 15l-45 0c-8 0-12-10-6-15 8-7 17-11 28-11z m188 203c0 29-22 52-51 54-28 64-78 133-135 133-1 0-1 0-2 0-1 0-1 0-2 0-31 0-60-20-84-49-13 10-28 15-46 15-43 0-78-35-78-78 0-22 10-42 25-57-2-5-3-11-3-18l0-21c0-14 5-27 14-37-3-13-4-26-4-40 0-26 6-56 18-86 0-1 0-3 1-5 1 0 1-1 1-1 29-69 86-132 156-132 1 0 3 0 4 0 70 0 127 63 156 132 0 0 0 1 1 1 0 2 1 4 1 5 12 30 18 60 18 86 0 14-1 27-4 40 9 10 14 23 14 37z m-357 41c-8 9-13 21-13 34 0 28 23 50 50 50 11 0 21-3 29-9-13-19-25-41-34-62-12-1-23-5-32-13z m171-329c0 0-4 0-4 0-49 0-95 45-121 99 46 23 88 33 123 33 35 0 76-10 122-33-25-54-71-99-120-99z m133 131c-50 24-95 33-134 34l-3 0c-38-1-84-10-133-34-6 20-10 40-10 59 0 8 1 16 2 24 3-1 6-1 9-1l85 0c-1-3-1-6-1-9 0-15 8-26 18-26 9 0 17 11 17 26 0 3 0 6-1 9l32 0c-1-3-1-6-1-9 0-15 8-26 17-26 10 0 18 11 18 26 0 3 0 6-1 9l85 0c3 0 6 0 9 1 1-8 2-16 2-24 0-19-4-39-10-59z m19 136c0-12-9-21-20-21l-268 0c-12 0-20 9-20 21l0 21c0 11 8 20 20 20l268 0c11 0 20-9 20-20z"/>
<glyph glyph-name="activity-meeting" unicode="&#112;" d="M416 176c-13 0-24-11-24-25 0-13 11-24 24-24 13 0 24 11 24 24 0 14-11 25-24 25z m-320 0c-13 0-24-11-24-25 0-13 11-24 24-24 13 0 24 11 24 24 0 14-11 25-24 25z m160 0c-13 0-24-11-24-24 0-14 11-25 24-25 13 0 24 11 24 25 0 13-11 24-24 24z m0 32c31 0 56-25 56-56 0-18-8-34-20-44l-2-1 3-1c18-8 32-20 43-35l0-1 0 0c11 16 25 28 43 35l3 2-2 1c-12 10-20 26-20 43 0 31 25 57 56 57 31 0 56-26 56-57 0-17-8-33-20-43l-2-1 3-2c35-14 59-49 59-89l-32 0c0 36-29 65-64 65-35 0-64-29-64-65l-32 0 0 0 0 0c0 36-29 66-64 66-35 0-64-30-64-66l0 0 0 0-32 0c0 36-29 65-64 65-35 0-64-29-64-65l-32 0c0 40 24 75 59 89l3 2-2 1c-12 10-20 26-20 43 0 31 25 57 56 57 31 0 56-26 56-57 0-17-8-33-20-43l-2-1 3-2c18-7 32-19 43-35l0 0 0 1c11 15 25 27 43 35l3 1-2 1c-12 10-20 26-20 44 0 31 25 56 56 56z m-128 96l112 0 0-16-112 0z m0 32l112 0 0-16-112 0z m0 32l112 0 0-16-112 0z m208 32c-18 0-32-14-32-32 0-18 14-32 32-32 18 0 32 14 32 32 0 18-14 32-32 32z m0 16c26 0 48-21 48-48 0-26-22-48-48-48-26 0-48 22-48 48 0 27 22 48 48 48z m-111 30l12-11-48-47-31 31-25-26-12 12 37 36 31-31z m-129 18l0-192 320 0 0 192z m-32 32l384 0 0-256-384 0z"/>
<glyph glyph-name="activity-meeting-2" unicode="&#113;" d="M426 115c32 0 57-22 57-49l0-58-115 0 0 59c0 27 26 48 58 48z m-186 0c32 0 58-22 58-49l0-58-114 0 0 59c-2 27 24 48 56 48z m187 93c23 0 42-19 42-42 0-22-19-41-42-41-22 0-41 19-41 41 0 23 17 42 41 42z m-185 0c22 0 41-19 41-42 0-22-19-41-41-41-23 0-42 19-42 41 0 23 19 42 42 42z m-154 187c-22 0-40-17-40-41 0-23 18-42 40-42 22 0 42 19 42 42 0 24-18 41-42 41z m-88 109l512 0 0-285-368 0 0 45c0 21-26 38-58 38-32 0-57-17-57-38l0-45-29 0z"/>
<glyph glyph-name="activity-meeting-3" unicode="&#114;" d="M430 406c-1 0-1 0-2 1-5 3-11 5-17 7l-11-12-12 12c0 0 0 0 0 0-6-1-11-4-16-7-1 0-2-1-4-1-7-5-14-5-21-3-25 8-49 46-56 60-1 4-4 7-8 8l-5 2c-3 1-7 0-11-2-9-4-13-15-8-24 1-2 5-10 11-20l5-7c13-19 34-43 61-52 5-1 10-2 16-3l0-95c0-5 1-10 2-14 0-1 0-2 0-3l0-174c0-12 10-22 21-22 12 0 22 10 22 22l0 149c1 0 2 0 3 0 0 0 0 0 0 0l0-149c0-12 10-22 22-22 11 0 21 10 21 22l0 171c1-1 2-2 4-3 3-2 6-2 9-2 6 0 12 3 16 9 51 95-19 137-42 152z m-30-97l-1 0-11 16 11 75 1 0 11-75z m47-20l0 52c7-13 9-30 0-52z m-1 174c0-26-21-46-46-46-26 0-47 20-47 46 0 26 21 47 47 47 25 0 46-21 46-47z m-150-214l-229 0c-15 0-27 12-27 26l0 211c0 14 12 26 27 26l229 0c15 0 27-12 27-26l0-211c0-14-12-26-27-26z m-229 245c-5 0-9-4-9-8l0-211c0-5 4-9 9-9l229 0c5 0 9 4 9 9l0 211c0 4-4 8-9 8z m79-309c0-20-16-37-37-37-20 0-37 17-37 37 0 21 17 38 37 38 21 0 37-17 37-38z m-80-121c-1 10 1 18 5 25l0-25 38 0-9 12 9 60 0 0 9-60-9-12 38 0 0 25c4-7 6-15 5-25l29 0c3 44-33 67-47 75-1 1-1 1-2 1-4 3-9 5-14 6l-9-9-9 9c0 0 0 0 0 0-5-1-9-3-14-6 0 0-1 0-2-1-14-8-50-31-47-75l29 0z m225 121c0-20-17-37-37-37-21 0-38 17-38 37 0 21 17 38 38 38 20 0 37-17 37-38z m-80-121c-2 10 1 18 5 25l0-25 37 0-8 12 8 60 1 0 9-60-9-12 38 0 0 25c4-7 6-15 4-25l30 0c3 44-34 67-48 75 0 1-1 1-2 1-4 3-8 5-13 6l-9-9-9 9c0 0 0 0-1 0-4-1-9-3-13-6-1 0-2 0-2-1-14-8-51-31-47-75l29 0 0 0z m-188-12l424 0 0-53-424 0z m254 353l-74-24-39 29-28-26-57 57 0-156-7 0 0-6 215 0 0 6-10 0z m-6-38l-68-23-39 19-29-16-50 56 0 24 51-51 29 26 37-28 69 23c0 0 0-30 0-30z"/>
<glyph glyph-name="activity-meeting-4" unicode="&#115;" d="M245 382c4-1 7-2 11-2 7 0 14 2 20 6 6 5 11 11 14 18 5 8 7 17 8 27 1 9 1 18-2 27-1 6-5 12-11 17-6 4-14 7-22 7-15 2-34-1-44-15-4-6-5-14-6-21 0-10 1-20 3-30 4-15 14-29 29-34z m163-160l-55 0c0 0-1 3-1 4-1 12-3 24-4 36-3 20-6 41-13 60-5 15-14 29-28 38-5 2-9 4-14 6-3 2-11 5-12 6l-9 7-15-14 14-89c0 0 0-1 0-1l-14-19c0 0-1 0-1 0-1 0-1 0-1 0l-14 19c0 0 0 1 0 1l13 89-14 15-9-8c0 0-1 0-1 0-2-1-16-8-22-11-6-2-11-7-16-12-11-12-17-30-21-46-5-22-7-44-10-66-1-3-1-7-1-10-1 0-1-5-1-5l-54 0c-1 0-2 0-4 0-4-1-8-3-10-7-5-9-1-20 8-23 3 0 6 0 9 0l92 0c0 0 0-2 0-3 1-7 2-15 3-22 1-12 2-25 3-37 2-13 3-27 5-40 1-10 2-22 3-32 0-6 0-13 3-18 5-8 15-12 24-10 9 3 15 12 15 21 0 5-1 9-1 14-1 11-1 24-2 35 0 13-1 27-2 40 0 12-1 23-1 35-1 5-1 11-1 17 0 0 0 0 0 0 4 0 9 0 13 0 0-5 0-10 0-14-1-11-1-22-2-34 0-13-1-26-2-40 0-11-1-25-1-36-1-6-1-11-1-17 0-7 3-14 10-18 8-5 18-4 25 3 3 3 5 8 6 13 0 2 0 5 1 7 1 10 2 21 3 30 1 14 3 27 4 40 1 12 3 25 4 38 1 8 2 16 3 24 0 0 0 4 0 4l38 0c13 0 26 0 39 0 6 0 12 0 19 0 8 0 15 7 15 15 0 9-7 15-15 15z m-205 0c-3 0-7 0-11 0 2 13 3 26 5 38 2 12 4 24 6 36z m105 0l0 74c3-12 5-24 6-35 2-13 4-26 5-39-3 0-7 0-11 0z m201 40c-3 20-12 60-12 60-5 19-23 32-42 31-10-1-19-5-26-12-4-3-7-7-9-12-1-2-2-5-3-8-3-9-7-19-12-27-4-7-9-13-15-18-3-3-6-5-10-7-1-1-3-2-5-2-2-1-4-2-6-3-9-5-12-15-8-24 1-4 5-8 9-10 5-2 10-2 16-1 16 6 30 16 40 29 3-18 4-45 3-55-1-10-3-15-3-15 0-1 0-1-1-1-1 0-3 0-5-1-6-1-12-3-18-4-9-2-18-5-26-9-1-1-17-10-18-27 0-6 1-12 2-18 1-6 2-13 4-19 5-22 11-44 18-66 1-4 3-7 7-9 4-3 9-4 13-4 10 2 16 11 15 21-2 9-4 18-5 27-3 12-5 25-6 37 0 4-1 7-1 10 0 2 0 3 0 5-1 0-1 1-1 1 0 1 1 1 1 1 1 0 2 0 3 0 6 1 13 2 20 2 11 1 22 2 34 2 4 1 9 1 13 2 5 1 10 3 14 6 6 4 12 11 15 19 2 5 3 10 4 15 2 11 3 22 3 33 1 17 0 34-2 51z m-105 109c5-6 11-12 19-15 0 0 10-4 22-2 7 2 14 6 18 11 6 6 9 14 10 22 2 9 2 20 0 29-1 9-4 18-9 25-4 6-9 10-16 12-9 3-18 2-26 0-9-2-17-5-24-11-5-5-9-11-10-18-1-9 1-18 3-26 3-9 7-19 13-27z m-266-199c-3 1-6 3-10 4-11 5-24 7-36 10l-6 1c0 0-3 12-4 24 0 9 1 31 3 47 7-8 15-15 24-21 5-3 10-5 15-7 3-1 6-2 9-2 2 0 5 0 7 1 9 4 14 14 12 23-1 5-4 9-8 11-3 3-8 4-12 6-13 6-23 19-30 33-2 5-4 10-6 15 0 1-1 3-1 4-1 2-2 5-3 7-4 9-11 17-20 21-8 4-18 5-28 3-9-3-17-8-22-15-3-4-5-9-7-13-1-6-3-12-4-19-5-21-8-42-10-64-1-14-1-29 0-44 1-9 2-18 4-26 2-8 6-16 12-22 6-7 16-11 25-12 3 0 5 0 7 0 3-1 5-1 8-1 5 0 11-1 16-1 7 0 13-1 20-2 3 0 6 0 9-1 2 0 4 0 5-1 0-1 0-3 0-5-1-13-3-26-5-38-2-11-4-22-6-33-1-4-2-7-1-10 1-5 4-9 7-12 8-5 20-3 25 5 2 3 3 7 4 10 1 5 3 10 4 15 4 11 7 23 10 35 3 13 7 25 8 38 1 23-12 34-15 36z m-94 194c5-6 12-10 18-11 12-3 22 1 22 1 8 3 14 9 19 15 6 8 10 18 13 27 2 9 4 17 3 26-1 7-5 13-10 18-7 6-15 9-24 11-8 2-17 3-26 1-7-3-12-7-16-13-5-7-8-16-9-24-2-10-2-20 0-30 1-8 4-15 10-21z"/>
<glyph glyph-name="activity-meeting-5" unicode="&#116;" d="M302 209l-267 0 0 256 267 0 0-97 24-5 0 106c7 4 11 11 11 20 0 12-10 23-23 23l-291 0c-13 0-23-11-23-23 0-9 5-16 12-20l0-271c0-7 5-12 11-12l72 0-42-157c-3-12 4-25 17-28 2-1 4-1 6-1 10 0 19 7 22 17l45 169 51 0 45-169c3-10 12-17 23-17 2 0 4 0 6 1 12 3 20 16 16 28l-42 157 72 0c7 0 12 5 12 12l0 69-24 5 0-63z m99 134c23 0 42 19 42 41 0 23-19 42-42 42-22 0-41-19-41-42 0-22 19-41 41-41z m109-137l-42 111c-4 9-12 15-22 15l-23 0c-6 0-12-3-16-7l11-80-17-14-16 14 11 80c-5 4-10 7-16 7l-21 0-133 28c-13 3-25-5-28-18-2-12 6-25 18-27l136-29c1-1 3-1 4-1l0-108-9-152c0-13 9-24 22-25 1 0 1 0 2 0 12 0 22 10 23 22l7 131 8-131c1-12 11-22 23-22 1 0 1 0 2 0 12 1 22 12 22 25l-9 152 0 65 20-53c5-12 18-18 30-13 12 5 18 18 13 30z m-458 140l0-99c0-6 6-11 12-11 6 0 12 5 12 11l0 99c0 7-6 12-12 12-6 0-12-5-12-12z m53 82l0-181c0-6 5-11 11-11 7 0 12 5 12 11l0 181c0 6-5 11-12 11-6 0-11-5-11-11z m52-47l0-134c0-6 5-11 12-11 6 0 11 5 11 11l0 134c0 6-5 12-11 12-7 0-12-6-12-12z"/>
<glyph glyph-name="activity-meeting-6" unicode="&#117;" d="M376 103c23 0 42-13 42-29l0-34-85 0 0 34c0 16 19 29 43 29z m-116 0c24 0 43-13 43-29l0-34-86 0 0 34c0 16 19 29 43 29z m-124 0c24 0 43-13 43-29l0-34-85 0 0 34c0 16 19 29 42 29z m241 70c17 0 31-14 31-31 0-17-14-31-31-31-18 0-32 14-32 31 0 17 14 31 32 31z m-116 0c17 0 31-14 31-31 0-17-14-31-31-31-17 0-31 14-31 31 0 17 14 31 31 31z m-123 0c17 0 31-14 31-31 0-17-14-31-31-31-18 0-32 14-32 31 0 17 14 31 32 31z m74 244l0-142 44 36 44 35z m-195 55l478 0 0-249-478 0z"/>
<glyph glyph-name="activity-men-work" unicode="&#118;" d="M190 299c-10 0-56-20-52-24 6-6 22-18 28-18 6 0 24 34 26 42z m-70 80c-7 0-15 0-16-1-5-3-15-47-9-42 6 4 40 37 43 40 2 2-7 3-18 3z m2 47c6 0 13 0 19-1 25 0 52-1 57-2 9-5 48-68 55-78 7-9-1-21-1-21l-56-99 118-95 2 0c3 0 4-2 4-2 15 15 29 20 39 20 22 0 36-21 36-21 0 0 40 6 45-43 0 0 16-2 16-15 0 0 33 6 39-24l-294 0c0 27 46 25 46 25 2 28 27 25 27 25 0 20 9 29 18 33l1 0-104 85-3-4c0 0 7-9 16-16 9-8 0-23 0-23l-59-115c0 0-11-12-29-3-16 8-12 26-12 26 0 0 51 95 49 101-3 2-55 64-55 64 0 0-1-68-1-76-2-7-36-116-36-116 0 0-15-9-27-5-13 6-15 20-15 20 0 0 27 94 27 101 1 8-2 111 0 115 1 6 19 23 19 23l-12 8 0 8-22 19 9 12 16-13 0 1c5 27 14 72 30 83 4 2 20 3 38 3z m155 41c24 0 45-19 45-44 0-24-20-45-45-45-24 0-45 19-45 45 0 25 21 44 45 44z"/>
<glyph glyph-name="activity-movie" unicode="&#119;" d="M268 138l44 0 1 0-60-65-22 0z m72 1l45 0 38-68-20 0z m-340 290l96-64 0-107-96-63z m127 12l385 0 0-247-115 0 0-24-145 0 0 24-125 0z"/>
<glyph glyph-name="activity-muscle" unicode="&#120;" d="M92 456c3 0 7 0 10-2 5-1 10-5 14-8 9-6 17-13 24-20 3-2 4-5 6-7 1-3 1-5-2-8-2-2-3-5-3-8-1-3-2-5-6-5-4-1-7-3-8-8-1-3-2-6-7-6-4 0-6-3-9-6-3-5-11-5-13 0-6 9-12 10-20 3-3-2-6-4-10-6-8-4-11-10-9-18 2-8 5-15 8-23 5-14 12-28 21-40 8-10 16-20 25-29 18-18 32-38 42-61 2-5 4-10 6-15 3-6 7-10 12-10 6 1 10 6 11 13 2 15 5 30 13 44 8 15 20 27 36 34 16 7 33 9 50 8 6 0 11-1 17-2 8-1 14 4 14 12 0 1 0 2-1 3-4 18 1 33 10 48 10 14 24 24 40 30 10 4 21 7 32 9 13 2 26 2 40 0 19-4 33-15 43-31 11-17 15-36 17-56 1-12 0-23-3-35-2-9-7-18-13-26-11-15-27-23-44-30-3-1-7-1-10-2-5-2-9-5-10-10-7-20-16-39-28-56-8-12-16-23-26-33-15-16-33-29-54-35-16-5-24-8-50-7 0-1 0-1 0-1-17 1-35 3-52 5-8 1-17 3-25 3-9 0-18-2-27-4-3 0-7-2-10-3-7-2-11 2-16 5-17 12-32 26-46 42-14 18-26 38-32 60-4 16-10 31-14 46-4 14-6 28-9 41-2 11-3 23-5 34-1 7-2 15-2 22-1 18-2 36-2 54 0 17 3 33 12 48 5 8 11 15 18 21 7 7 15 14 23 19 7 4 14 7 22 7z"/>
<glyph glyph-name="activity-musical" unicode="&#121;" d="M224 511c-124 0-224-100-224-224 0-123 100-223 224-223 2 0 3 0 5 0l-16 18c0 1-13 22 15 46 21 17 50 2 65-8l0 106c-17-19-42-32-69-32-52 0-93 42-93 93 0 52 41 93 93 93 48 0 87-36 92-83 4 1 7 2 11 2 8 0 15-3 21-7l0 12c0 19 16 34 34 34 18 0 32-14 34-31 6 5 13 8 21 8 3 0 6-1 9-2-13 112-108 198-222 198z m0-100c-68 0-124-56-124-124 0-5-4-8-9-8-5 0-9 3-9 8 0 78 64 142 142 142 5 0 9-4 9-9 0-5-4-9-9-9z m0 51c-96 0-175-79-175-175 0-5-4-8-8-8-5 0-9 3-9 8 0 106 86 192 192 192 5 0 9-4 9-9 0-4-4-8-9-8z m-31-175c0-17 14-30 31-30 17 0 30 13 30 30 0 17-13 31-30 31-17 0-31-14-31-31z m265-54l0 47c0 8-5 15-11 19-3 1-6 2-10 2-11 0-21-9-21-21l0-103-13 0 0 127c0 11-9 21-21 21-11 0-20-10-20-21l0-127-14 0 0 88c0 11-9 21-21 21-4 0-7-2-11-4-5-3-9-10-9-17l0-173-11 9c-1 1-40 33-59 17-18-15-14-26-13-28l22-25 57-65 210 0 0 233c0 12-10 21-21 21-12 0-21-9-21-21l0-56-13 0 0 56z"/>
<glyph glyph-name="activity-party" unicode="&#122;" d="M180 268c5 5 11 10 16 14 1-39 3-79 4-81l85 0c-1 15-4 83-3 118 1 1 2 2 3 3 29 37 49 78 62 123 8 27-34 44-43 16-9-33-23-64-41-92-6 4-12 6-20 7-19 1-37-10-43-28-1 0-2-1-3-2-1-1-1-1-2-2 0 23-37 31-44 6-6-20-6-40-9-60-3-22 20-38 38-22z m-21 129l0 0c0-5 4-10 9-10 6 0 10 4 10 10 6-12 17-20 30-22 17-3 34 7 41 22 1-6 5-10 10-10 6 0 10 5 10 10l0 0c3 0 6 3 6 7l0 25c0 4-3 7-6 7l0 0c0 4-2 7-5 8-7 21-27 37-50 37-24 0-43-16-50-37-3-1-5-4-5-8l0 0c-4 0-7-3-7-7l0-25c0-4 3-7 7-7z m55 74c18 0 33-11 40-27-3-2-5-5-5-8l0-3c-5 11-16 19-29 21-18 3-34-6-42-21l0 3c0 3-2 6-4 8 6 16 22 27 40 27z m-214-285l512 0 0-155-512 0z m42 30l119 0 0-21-119 0z m298 0l120 0 0-21-120 0z"/>
<glyph glyph-name="activity-piano" unicode="&#65;" d="M464 423l0-232-10 0 0-102 53 0 0 334z m-56 0l0-232-8 0 0-102 51 0 0 102-13 0 0 232z m-56 0l0-232-10 0 0-102 52 0 0 102-13 0 0 232z m-66 0l0-334 52 0 0 102-13 0 0 232z m-46 0l0-232-10 0 0-102 52 0 0 334z m-56 0l0-232-10 0 0-102 52 0 0 102-12 0 0 232z m-66 0l0-334 52 0 0 102-13 0 0 232z m-48 0l0-232-9 0 0-102 51 0 0 334z m-67 0l0-334 53 0 0 102-13 0 0 232z m-3 5l512 0 0-344-512 0z"/>
<glyph glyph-name="activity-prize" unicode="&#66;" d="M167 280l11 0 6 10c3 5 6 9 11 12l48 90-58 108c-5 10-17 15-28 11l-93-35c-6-2-11-7-13-14-3-7-2-14 2-20l103-163c4 0 7 1 11 1z m294 182c-2 7-7 12-13 14l-93 35c-11 4-23-1-28-11l-101-187c7-1 14-3 20-6l10-6 10 6c7 4 15 6 23 6 16 0 31-9 39-23l6-10 11 0c4 0 7 0 11-1l103 163c4 6 5 13 2 20z m-72-265l-21 13 0 24c0 13-10 23-23 23l-24 0-13 21c-6 11-20 15-31 9l-21-12-21 12c-11 6-25 2-31-9l-13-21-24 0c-13 0-23-10-23-23l0-24-21-13c-11-6-15-20-9-31l12-21-12-21c-6-11-2-25 9-32l21-12 0-24c0-13 10-23 23-23l24 0 13-22c6-10 20-14 31-8l21 12 21-12c4-2 8-3 12-3 8 0 15 4 19 11l13 22 24 0c13 0 23 10 23 23l0 24 21 12c11 7 15 21 9 32l-12 21 12 21c6 11 2 25-9 31z m-46-35l-43-31 16-52c2-4 0-9-4-12-1-1-4-2-6-2-2 0-4 1-6 2l-44 32-44-32c-3-3-9-3-12 0-4 3-6 8-4 12l16 52-43 31c-4 3-6 8-4 12 1 5 5 8 10 8l54 0 17 51c1 5 5 8 10 8 5 0 9-3 10-8l17-51 54 0c5 0 9-3 10-8 2-4 0-9-4-12z"/>
<glyph glyph-name="activity-pumpkin" unicode="&#67;" d="M508 320c-2 10-5 19-9 28-16 35-40 53-69 63-27 11-50 11-72 1-16-8-30-21-42-41-17 8-33 14-50 15 1 7 2 14 4 20 4 15 11 28 21 39-9 6-16 12-24 19-20-18-34-43-38-80-12-2-23-6-35-12-13 19-26 31-41 39-22 11-45 10-73 0-29-10-53-27-68-60-4-10-8-21-9-33-8-44 0-98 30-154 27-51 61-83 95-94 17-7 35-5 51 4 25-18 50-26 74-26 25-1 52 9 77 28 17-10 35-12 53-6 35 12 69 45 97 97 30 57 37 111 28 153z m-193-27c4 15 9 30 12 46 12-14 22-31 34-44 3-3 17-15 16-16-1-3-2-7-3-10l-6 3c-20-10-41-19-64-16-5 15 6 24 11 37z m-98-75c12 25 28 45 35 74 9-2 13-28 17-37 5-9 27-34 20-45-6 11-13-1-20-3-8-2-14 0-21 0-6 0-37-6-31 11z m-77 84c12 12 28 28 42 34 7-3 5-14 9-22 3-7 7-15 11-23 2-4 23-47 9-41-8 4-19 5-27 8-8 2-16 4-23 5-16 2-32 3-47 9-12 5 25 29 26 30z m239-119c-7-14-17-26-28-36-6-6-22-10-24-6-5-1-10-2-16-2-7 1-13 0-15-8-2-7-4-14-6-21-1-8-17-9-23-10-11-1-23 0-34 3-12 3-23 1-34 4-18 4-15 12-13 30-14-5-21 14-34 14-4-4-6-9-6-16-8 5-20 9-26 18-14 19-28 46-26 73 10-9 32-16 20-36 6-6 26-18 26 0 19-8 38-21 58-27 9-2 18-3 27-2 7-10-5-18 8-22 10-3 20-7 31-7 5 8 9 17 10 27 6 3 49 21 50 14 0 0 3-10 13-9 5 1 10 0 12 8 1 8-4 13 3 19 3 4 8 6 12 8 21 10 33 45 39 69 8-31-12-60-24-85z"/>
<glyph glyph-name="activity-puzzlepiece" unicode="&#68;" d="M240 0l0 67c-9-3-18-6-28-6-9 0-18 2-26 6-8 3-16 8-22 14-12 13-19 30-19 48 0 18 7 34 20 47 12 12 29 19 46 19 0 0 1 0 1 0 10 0 19-2 28-6l0 67-80 0c2 3 5 7 8 12 6 10 11 20 11 32 0 28-23 50-50 51 0 0-1 0-1 0-28 0-51-23-51-51 0-12 5-23 11-32 3-4 6-9 8-12l-74 0c-12 0-22-10-22-22l0-213c0-11 10-21 22-21z m205 240c4-8 6-18 6-28 0-18-7-34-20-47-13-13-29-20-47-20-1 0-1 0-1 0-18 1-34 8-46 20-13 13-20 29-20 47 0 9 2 19 6 28l-67 0 0-80c-3 2-8 5-13 9-9 6-19 10-31 10 0 0 0 0-1 0-27 0-50-23-50-50 0-9 2-18 7-26 8-15 25-26 44-26 12 0 22 5 31 11 6 4 10 7 13 8l0-96 234 0c12 0 22 10 22 22l0 218z m45 272l-234 0 0-98c0 0 9 7 11 9 9 8 20 12 33 12 28 0 51-23 51-52-1-27-23-49-51-50 0 0 0 0 0 0-13 0-24 5-33 12-2 2-11 9-11 9l0-98 96 0c-1-1-5-8-9-13-6-9-10-19-10-31 0-28 23-50 50-51 0 0 1 0 1 0 13 0 25 5 34 14 10 9 17 22 17 37 0 12-5 22-11 31-4 6-7 10-8 13 0 0 0 0 0 0l96 0 0 235c0 11-10 21-22 21z"/>
<glyph glyph-name="activity-reading" unicode="&#69;" d="M32 396l224-107 224 107-15-113-1 1c-5 1-10 1-14 1-32 0-58-25-58-57 0-31 24-56 55-57l2 0-11-76-182-95-182 95-11 76 2 0c29 3 51 27 51 57 0 32-25 57-57 57-4 0-8 0-11-1l-1 0z m228 116c66 0 120-54 120-121 0-4 0-9 0-13l-124-59-116 55c0 6-1 12-1 17 0 67 54 121 121 121z"/>
<glyph glyph-name="activity-speech" unicode="&#70;" d="M489 375l-116 0 0-150c0-21-17-39-39-39l-179 0 0-50c0-13 11-23 23-23l175 0 74-61c9-8 14-5 11 7l-14 54c0 0 0 0 0 0l65 0c13 0 23 10 23 23l0 216c0 13-10 23-23 23z m-466-172l34 0c0 0 0-1 0-1l-14-53c-2-8-1-12 3-12 2 0 5 2 8 5l73 61 207 0c12 0 23 10 23 22l0 217c0 12-11 22-23 22l-311 0c-13 0-23-10-23-22l0-217c0-12 10-22 23-22z"/>
<glyph glyph-name="activity-student" unicode="&#71;" d="M224 191l232 0 0-179-7 0 0-11-18 0 0 11-181 0 0-11-18 0 0 11-8 0z m245 167l28-11-53-131 0-1-98 0 0 29 77 0z m-357 8l38 0c17 0 32-10 39-25l1 0 58-75 57 0 3 0c15 0 28-13 28-29 0-16-13-28-28-28-1 0-2 0-3 0l0 0-85 0-26 34 0-100c0-4-1-8-2-11l0 0 8 0 0-35 0 0-76 0 0-77 50 0 0-20-18 0 0 10-82 0 0-10-17 0 0 20 47 0 0 77-62 0c-9-1-17 7-17 17l0 0 0 2-10 180c0 10 7 19 17 20 9 0 17-8 18-18l9-167 11 0 0 1c-1 3-2 7-2 11l0 179c0 25 20 44 44 44z m18 146c34 0 61-27 61-60 0-34-27-61-61-61-33 0-60 27-60 61 0 33 27 60 60 60z"/>
<glyph glyph-name="activity-two" unicode="&#72;" d="M174 128c-1 0-2 0-3 0-28 0-50 10-50 21 0 11 19 0 44-1-23 59-27 142-16 206-84 14-149 95-149 0 0-103 77-281 171-281 14 0 28 4 41 11-15 10-28 26-38 44z m-95 140c-28 11-46 30-42 42 5 13 32 15 60 4 28-11 47-30 42-43-5-12-32-14-60-3z m265 76c-89 32-127 155-161 58-34-97-21-290 68-321 89-32 220 110 254 208 35 97-72 24-161 55z m-140 5c9 10 34 3 57-17 23-19 35-43 26-54-9-10-35-3-58 17-23 19-34 44-25 54z m119-213c-4-11-28-12-54-3-26 9-44 25-40 36 4 11 21-9 47-18 26-9 51-4 47-15z m79 98c-30-2-54 9-55 22 0 14 24 26 54 27 30 1 54-9 55-23 0-13-24-25-54-26z"/>
<glyph glyph-name="activity-wedding" unicode="&#73;" d="M176 199l0-11 67 0 0 11c0 29-12 58-33 79l0 1-1-1c-21-21-33-50-33-79z m310-81l-138 56 0 16 8-9c6-6 16-6 23 0l18 16c6 6 6 17 0 23l-169 183 0 40 13 0c8 0 14 6 14 13l0 10c0 8-6 13-14 13l-13 0 0 20c0 7-6 13-14 13l-10 0c-7 0-13-6-13-13l0-20-14 0c-7 0-12-5-12-13l0-10c0-7 5-13 12-13l14 0 0-40-169-183c-6-6-6-17 0-23l19-16c6-6 16-6 22 0l8 9 0-173c0-11 9-19 20-19l389 0c9 0 17 8 17 17l0 87c0 7-5 13-11 16z m-176-82l-53 0 0 57c0 27-21 48-47 48l-1 0c-26 0-47-21-47-48l0-57-53 0 0 195 100 108 101-108 0-195z m153-4l-113 0 0 105 113-46z"/>
<glyph glyph-name="activity-winners" unicode="&#74;" d="M19 101l474 0c10 0 19 8 19 19l0 137c0 11-9 19-19 19l-142 0 0 117c0 10-9 19-19 19l-152 0c-11 0-19-9-19-19l0-84-142 0c-11 0-19-9-19-19l0-170c0-11 8-19 19-19z m375 64l9 1c3 1 5-1 6-4 1-3 2-5 4-7 3-3 6-4 10-4 5 0 8 2 11 5 3 3 5 8 5 13 0 5-2 9-5 12-2 4-6 5-10 5-1 0-1 0-2 0-4 0-7 3-6 6l0 5c1 2 3 4 5 5 4 0 7 1 9 3 3 3 4 6 4 10 0 4-1 7-3 9-2 2-5 3-9 3-3 0-6-1-9-3-1-2-3-4-3-7-1-2-4-4-6-3l-9 1c-3 1-5 4-4 7 1 4 3 7 5 10 2 4 6 7 11 9 5 2 10 3 16 3 10 0 18-3 24-10 5-5 8-11 8-18 0-9-5-17-16-22 7-1 12-4 15-9 4-5 6-10 6-17 0-9-4-17-11-24-6-7-15-10-25-10-10 0-18 3-25 8-5 5-8 10-10 16-1 3 2 7 5 7z m-166 180c0 2 2 4 4 5 4 2 9 5 14 9 5 4 9 8 12 14 0 2 2 3 5 3l7 0c3 0 6-3 6-6l0-97c0-3-3-6-6-6l-10 0c-3 0-5 3-5 6l0 72c-6-5-12-9-19-12-4-2-8 1-8 5l0 7z m-176-170c1 5 3 10 6 14 4 7 11 15 23 26 9 9 15 15 17 18 3 4 4 8 4 12 0 5-1 9-3 11-3 3-6 4-11 4-4 0-7-2-10-4-2-2-3-5-4-8 0-3-3-5-6-5l-9 1c-3 1-6 4-5 7 2 8 5 14 11 18 6 5 14 8 24 8 11 0 19-3 25-9 6-6 9-13 9-21 0-5-1-10-2-14-2-5-5-9-9-14-2-3-7-8-13-14-7-6-11-10-13-12-1-2-3-4-4-5l36 0c3 0 5-3 5-6l0-8c0-3-2-6-5-6l-61 0c-3 0-6 4-5 7z"/>
<glyph glyph-name="activity-worker" unicode="&#75;" d="M410 217l-34-54-23 9-80-145 94 0 41 55 35 0 38-55 31 0-72 182z m28-144l-26 0-34-46 92 0z m-402 41l-27-87 38 0 30 87 8 67 29 0 25-70-15-84 36 0 18 96-18 50-7 22 98-55-18-32 43-25 45 79-43 24-18-30-114 64-6 22 11 45 5-41 8-20 30-18-12 45-10 86-32 2-5 15c21 4 37 23 38 45l-95 12c-1-3-1-6-1-10 0-16 8-31 21-40l-1 0-19-16-24 2-54-47 0-71 43-11z m-9 143l0 21 18 17 0-42z m146 153l14-2c2 43-17 71-51 76-2 0-5 0-8 0-30 0-52-22-60-60l12-2z"/>
<glyph glyph-name="food-bar" unicode="&#76;" d="M278 257l128 0 1-2c9-17 13-36 13-57 0-52-29-95-68-101 6-4 10-10 10-18 0-5-1-9-4-13l0-28c27-2 47-8 47-16l0-6c0-9-28-16-63-16-35 0-63 7-63 16l0 6c0 8 21 14 48 16l0 28c-3 4-5 8-5 13 0 8 4 14 10 18-38 6-68 49-68 101 0 21 4 40 13 57z m-139 255l46 0c4 0 7-3 7-7l0-87-4 0c0-8 0-32 3-41l0 0c4-11 30-15 38-35 7-18 2-298 1-315l0-1c0-5-2-9-5-13-6-7-32-13-63-13-32 0-58 6-63 14-3 3-5 7-5 12l0 1c0 17-6 297 1 315 8 20 34 24 38 35l0 0c3 9 3 33 3 41l-4 0 0 87c0 4 3 7 7 7z"/>
<glyph glyph-name="food-bartender" unicode="&#77;" d="M165 114c-3 0-6-3-6-7 0-3 3-6 6-6 3 0 6 3 6 6 0 4-3 7-6 7z m0 43c-3 0-6-3-6-6 0-4 3-7 6-7 3 0 6 3 6 7 0 3-3 6-6 6z m0 45c-3 0-6-3-6-7 0-3 3-6 6-6 3 0 6 3 6 6 0 4-3 7-6 7z m-83 37c-69-52-3-149-3-149l3-5z m83 62c3 0 6-3 6-6 0-4-3-7-6-7-3 0-6 3-6 7 0 4 1 6 6 6z m24 8c13-16 0-29 0-29l-16 10c3 5 0 9 0 9z m-50 0l16-10c0 0-1-4 0-9l-16-10c0 0-11 13 0 29z m256 64l5 0 0-5 3 0 0-1 3 0 0-2 34 0 0 2 8 0 0 1 3 0 0 3 8 0 0 2 8 0 0-5 3 0 0-1 4 0 0-2 38 0 0-19-93 0c0-35-13-147-176-95l0-190-156 0c-8-21-28-16-28-16-145 162 23 256 23 256l25 0 58-74 43 60 10 14 24 0c0 0 132-62 132 45l-86 0 0 19 30 0 0 2 2 0 0 1 3 0 0 3 8 0 0-1 8 0 0-2 3 0 0-1 4 0 0-2 33 0 0 2 5 0 0 1 3 0 0 3 8 0z m-2 34l2-2 0-32-3 0 0 34z m-228 46c35 0 64-29 64-64 0-35-29-64-64-64-35 0-64 29-64 64 0 35 29 64 64 64z m149 13c4-2 12-2 16-2l3 0c1 0 13 0 16-1l0-4c0-3 1-8 1-11 0-5 2-8 2-13 0-4 0-9-3-14-3-6-8-11-15-16l-3-2 0 2c-1 2-3 3-3 3-6 3-11 10-14 16-2 5-4 10-4 15 0 4 2 8 2 12 0 4 2 8 2 12z m144 1c1 0 12 0 17-1l0-3c0-4 2-8 2-12 0-4 1-8 3-12 0-5 0-10-3-15-3-6-8-11-15-16l-3-1 0-2c-1 2-3 3-3 3-6 3-11 10-14 16-2 5-4 10-4 15 0 4 2 8 2 12 0 4 2 8 2 12l0 3c3 1 16 1 16 1z m-64 0c1 0 12 0 16-1l0-3c0-4 1-8 1-12 0-4 2-8 2-12 0-5 0-10-3-15-4-6-8-11-15-16l-2-1-1 1c-6 3-11 10-14 16-2 5-4 10-4 15 0 4 2 8 2 12 0 4 2 8 2 12l0 3c3 1 16 1 16 1z"/>
<glyph glyph-name="food-beer" unicode="&#78;" d="M412 402l-10 0c1 1 1 2 1 3 0 21-14 39-34 44-9 27-34 45-63 45-13 0-25-4-36-11-13 18-34 29-57 29-30 0-57-19-67-46-5 2-10 2-15 2-15 0-29-7-37-20-35 0-63-28-63-63 0-6 1-13 4-19-3-6-4-12-4-19 0-15 9-31 18-40l0-228c-7-8-11-19-11-31 0-27 22-49 49-49l247 0c27 0 49 22 49 49 0 3 0 6-1 9l30 0c38 0 70 31 70 70l0 205c0 38-32 70-70 70z m-277-289c0-9-7-15-15-15-8 0-15 6-15 15l0 208c0 1 0 2 0 3 8 2 16 5 23 9 4-2 7-7 7-12z m89 0c0-9-7-15-15-15-9 0-15 6-15 15l0 208c0 8 6 15 15 15 8 0 15-7 15-15z m92 0c0-9-6-15-15-15-8 0-15 6-15 15l0 208c0 8 7 15 15 15 9 0 15-7 15-15z m19 271c0 0-1 1-1 1l-5-2c-1-1-3-2-5-3-5-1-10-2-15-2-4 0-7 0-11 1-6-5-13-7-21-7-12 0-23 5-29 15l-4 6-6-3c-9-5-20-7-31-6l-7 1-1-8c-1-16-14-27-30-27-9 0-17 4-23 11l-7 8-5-9c-17-25-43-19-45-17-5-39-22-30-27-27-5 3-15 17-15 31 0 6 1 11 3 16l1 3-1 3c-2 5-3 11-3 16 0 27 21 48 47 48 1 0 2 0 3 0l5-1 3 5c7 15 26 21 42 12l8-5 3 10c6 25 29 43 55 43 39 0 54-37 54-37l4 4c10 9 22 14 35 14 23 0 43-15 49-37l1-5 5-1c15-2 26-15 26-30 0-11-6-21-16-26-4-2-8-3-13-3-9 0-17 3-23 8z m109-257c0-18-14-32-32-32l-40 0 0 269 19 0 21 0c18 0 32-14 32-32z"/>
<glyph glyph-name="food-beer-2" unicode="&#79;" d="M118 21l235 0 1-21-235 0z m180 290l53 0 0-268-53 0z m-86 0l64 0 0-268-64 0z m-75 0l64 0 0-268-64 0z m-70 0l38 0 0-22-13 0c-14 0-30-17-30-31l0-90c0-13 16-18 30-18l13 0 0-21-38 0c-18 0-37 7-37 25l0 118c0 18 19 39 37 39z m48 43l236 0 0-22-236 0z m158 158c10 0 19-7 26-26 0 0 62 23 59-36 0 0 51-5 46-41 0 0 59 43 57-39 0 0 56-61-13-74 0 0 13-49-36-39 0 0 15-43-41-20l-3 69 15 3 0 55-284 0 15 9c0 0-46 74 46 59 0 0 3 97 72 54 0 0 21 26 41 26z"/>
<glyph glyph-name="food-beverage-wine" unicode="&#80;" d="M316 276c1-50 12-135 66-135 55 0 66 85 67 135z m-17 32l167 0c8 0 16-7 16-16 0-105-30-170-83-181l-1 0 0-78 48 0c9 0 16-8 16-16 0-9-7-16-16-16l-128 0c-8 0-16 7-16 16 0 8 8 16 16 16l48 0 0 78-1 0c-52 11-82 76-82 181 0 9 7 16 16 16z m-144 172l-46-1 0-108c0-28-10-55-27-74-13-14-20-31-20-50l0-199c0-5 2-9 5-12 3-2 6-4 10-4l0-16 0 16 109 1c9 0 16 7 16 16l0 200c0 18-7 36-19 49-18 19-28 45-28 74z m17 32c4 0 8-2 10-5 3-3 5-7 5-11l0-124c0-20 7-39 19-52 18-19 28-45 28-71l0-200c0-26-21-48-47-48l-109-1-1 0c-12 0-24 5-33 14-9 9-14 21-14 34l0 199c0 27 10 52 28 71 12 14 19 33 19 53l0 124c0 9 7 16 16 16l78 1c0 0 1 0 1 0z"/>
<glyph glyph-name="food-burger" unicode="&#81;" d="M466 359l-1 0c0 54-93 119-209 119-116 0-210-65-210-119l0-12 420 0 0 12z m-393 12c14 37 91 83 183 83 92 0 169-46 183-83z m-27-218c0-39 0-119 127-119 1 0 159 0 162 1 131 3 131 77 131 118l0 12-420 0z m396-12c-1-38-11-80-108-83-4 0-154 0-161 0-87 0-101 38-103 83z m-82 187c-9 6-19 14-39 14-20 0-30-8-39-14-7-6-13-11-26-11-13 0-19 5-26 11-9 6-19 14-39 14-20 0-30-8-39-14-7-6-13-11-26-11-13 0-19 5-26 11-9 6-19 14-39 14l0-20c13 0 19-5 26-11 9-6 19-14 39-14 20 0 30 8 39 14 7 6 13 11 26 11 13 0 19-5 26-11 9-6 19-14 39-14 20 0 30 8 39 14 7 6 13 11 26 11 13 0 19-5 26-11 9-6 19-14 39-14 20 0 30 8 39 14 7 6 13 11 26 11l0 20c-20 0-30-8-39-14-7-6-13-11-26-11-13 0-19 5-26 11z m97-40l-403 0c-30 0-54-25-54-55 0-30 24-54 54-54l404 0c30 0 54 25 54 56 0 30-24 53-55 53z m8-79c-22 0-33 9-42 16-8 6-14 11-28 11-14 0-20-5-28-11-9-7-20-16-41-16-22 0-33 9-42 16-8 6-14 11-28 11-14 0-20-5-28-11-9-7-20-16-42-16-21 0-32 9-41 16-8 6-14 11-28 11-14 0-20-5-28-11-9-7-20-16-42-16l0 22c14 0 20 5 28 11 10 7 21 16 42 16 21 0 32-9 41-16 8-6 15-11 28-11 14 0 20 5 29 11 9 7 20 16 41 16 21 0 32-9 41-16 9-6 15-11 29-11 13 0 20 5 28 11 9 7 20 16 41 16 21 0 32-9 42-16 8-6 14-11 28-11z"/>
<glyph glyph-name="food-cake" unicode="&#82;" d="M21 291l0-22c0 0 30-32 70-35 28-2 57 11 86 40l1-2 1 1c0 0 1-2 4-5l8-9 0 0c11-10 30-23 54-25 28-2 56 11 85 40l7-7 1 0c0 0 0-1 1-2l6-6c0 0-1 0-1 0 10-10 31-28 59-31 50 0 88 38 88 38l0 25-470 0z m381-83c-36 3-61 24-73 37-26-21-52-32-78-32-3 0-6 0-8 0-31 3-54 20-67 33-26-22-52-33-79-33-2 0-5 0-8 0-31 3-55 21-68 34l0-190 470 0 0 185c-27-23-54-35-81-35-3 0-6 1-8 1z m-381-167l470 0 0-41-470 0z m217 260l36 0 0 139-15 16c0 1 0 2-1 3-8 12-1 18-1 18l-2 4c0 0-11-8-1-25 0 0 0 0 0 0l-16-16z m-3 179c2-4 5-7 7-11 1-2 2-4 3-6 1-2 2-4 0-6 2 1 2 4 2 6-1 3-1 5-2 7-2 5-4 9-6 13l0-1-1 1c-1 3-2 7 0 11 1 3 2 6 5 9 7-3 14-9 18-16 5-7 6-17 4-27 5 9 6 20 1 30-5 10-13 16-23 21l-3 1-1-2c-3-4-6-9-7-14-2-5-2-12 3-16z"/>
<glyph glyph-name="food-chicken-turkey" unicode="&#83;" d="M424 53c-39 0-343 0-382 0-24 0-32 2-32-12 0-23 63-33 97-33 26 0 226 0 253 0 34 0 96 10 96 33 0 14-8 12-32 12z m80 404c-9 8-21 11-31 7 3 10 1 22-7 31-12 12-31 12-42 0-7-6-9-15-9-23 2-27-13-49-25-60-31-32-128-40-128-40l0 0c-19-2-38-11-54-24-7-3-13 9 1 20 7 5 23 12 17 15-125-3-226-94-226-206 0-113 52-102 233-102 196 0 233-11 233 102 0 51-21 98-56 134-5-21-8-43-10-59l0-1 0 0c-4-28-16-52-35-72-23-23-55-36-88-36-30 0-56 9-79 28-12 11 2 25 16 12 4-3 9-5 13-8 1-1 2-1 4-2 3-2 7-3 11-5 3-1 5-1 8-2 3-1 6-2 9-2 6-1 11-2 17-2 12 0 24 2 35 6 15 5 29 13 41 25 16 17 26 38 29 60l0 0c0 0 8 97 40 128 12 12 34 27 61 25 0 0 1 0 1 0 0 0 0 0 0 0l0 0c8 0 15 3 21 9 11 11 11 30 0 42z"/>
<glyph glyph-name="food-cocktail" unicode="&#84;" d="M305 23l0 175 12 0 133 200-72 0 38 68c1 0 3-1 4-1 13 0 24 11 24 24 0 12-11 23-24 23-13 0-23-11-23-23 0-8 3-14 9-18l-41-73-182 0c2 9 2 18 0 28-8 33-41 53-74 46-33-8-53-41-45-74 8-33 41-53 73-46 2 1 3 1 5 1l103-155 12 0 0-175c-44-1-76-6-76-11 0-7 45-12 100-12 55 0 100 5 100 12 0 5-32 10-76 11z m-230 372l39 10-21-35c-9 7-15 15-18 25z m26-30l16 26 11-18 3-12c-10-2-21 0-30 4z m32 33l-1 4-6 4-4-6 1-2-2 0 1 2-1 6-7-1 4 6-6 3-40-9c-1 11 1 21 6 30l34-21 6 2-1 6-34 22c6 8 15 14 25 17l9-39 6-3 3 6-9 38c11 1 21-1 30-5l-21-33 2-7 7 1 20 34c8-6 14-15 17-25l-37-9-4-5 6-4-7-1 2-7 6-4z m4 12l38 9c1-7 0-15-2-21l-16 0z m120-190l-103 156 199 0-28-51 12 0 28 51 43 0-103-156z m20 19l48 86-132 0 70-101 37 0 69 101-32 0-51-91z m14 67c6 0 12-5 12-12 0-7-6-13-12-13-7 0-13 6-13 13 0 7 6 12 13 12z m-56-6c-4 0-7 4-7 7 0 4 3 7 7 7 4 0 7-3 7-7 0-3-3-7-7-7z m49-6c0 3 3 7 7 7 3 0 6-4 6-7 0-4-3-7-6-7-4 0-7 3-7 7z m-159 123l-4-1 2 3z m2-9l-1-2-3 1z m2 3l1-2-3-1z m-8 5l-2-3-1 3z m-2-3l1-4-2 2z m10-2l0 4 2-1z m-6-4l-2-1-1 3z m2 10l3 1 1-3z"/>
<glyph glyph-name="food-cocktail-2" unicode="&#85;" d="M154 318l44-52c0 0 20-20 37 0l47 52c0 0-63-10-128 0z m261 177c-3 0-6-1-8-3-4-2-4-7-2-11 3-13 4-26 5-39l0-3 0 0c-1 0-2-1-3-2l0 0-1 0c-11 12-19 26-30 37-1 2-3 2-5 2-2 0-5-1-6-2-4-4-8-8-7-14 0-4 4-7 8-8 13-4 25-10 37-16l2-1 0 0c0-1 0-2 0-3 0-3 2-5 5-6l0 0-1 0c-4-16-11-30-15-45-1-5 2-8 6-10 5-1 11-2 15 2 4 2 4 7 3 11-3 12-4 24-6 36l0 6 0 0c1 0 2 1 3 2l0 0 1-1c10-12 18-26 28-38 3-3 8-3 12 0 3 3 7 8 7 13 0 4-4 7-8 8-12 5-22 11-33 17l-5 3 0 0c0 1 0 2 0 3 0 1 0 1 0 1l0 0 1 1c15 4 31 5 47 9 4 2 5 6 4 11-1 4-4 10-9 11-4 2-8 0-10-3-10-9-19-16-29-23l-5-4 0 0c-1 1-2 2-3 3l0 0 0 0c4 16 11 30 15 45 1 5-2 8-6 10-3 0-5 1-7 1z m-3 17c39-1 72-29 78-69 6-43-25-83-68-89-22-3-43 3-59 15l-2 2-123-150 0-194 0 0c49-3 86-14 86-27l-214 0c0 13 37 24 85 27l1 0 0 194-174 212 309 0 0 1c1 38 29 72 69 77 4 1 8 1 12 1z"/>
<glyph glyph-name="food-cooker" unicode="&#86;" d="M65 319l379 0 0-19 5 0c9 0 15-4 13-10l0-5 33 0 0-39-36 0-3-24c0-6-6-10-10-10l0-127-2 0c-4-19-22-34-43-34l-293 0c-21 0-39 15-43 34l-2 0 0 127c-6 0-10 4-12 10l-3 26-31 0 0 39 28 0 0 4c0 6 6 11 14 11 1 0 3 0 6-2z m190 142c23 0 44-9 44-21 0-6-6-12-15-15l0-13 5 0 0-3c75-3 134-15 151-31l3 0c7 0 15-5 15-9 0-5-6-9-15-9l-374 0c-7 0-15 4-15 9 0 4 6 9 15 9l3 0c17 16 76 28 151 31l0 3 5 0 0 13c-9 3-15 9-15 15-3 12 16 21 42 21z"/>
<glyph glyph-name="food-covered" unicode="&#87;" d="M174 250c0 5 0 11 1 16 1 13 4 26 7 39 2 7 4 13 6 19 2 6 5 12 7 18 6 11 12 22 20 31 2 2 4 5 5 7 2 2 4 4 6 6 4 3 8 7 12 10 8 6 15 12 23 15 7 4 13 8 18 10 11 4 17 6 17 6 0 0-5-4-14-11-5-3-10-7-16-12-6-5-12-12-18-18-3-3-6-8-9-11-2-2-3-4-5-6-1-2-2-5-4-7-6-8-10-19-14-29-2-5-4-11-6-16-1-6-3-12-5-17-2-12-4-24-5-37-1-4-1-9-2-13 99 0 175 0 282 0 1 4 1 9 1 14 0 90-66 164-150 174 5 5 9 12 9 20 0 16-13 28-28 28-16 0-28-12-28-28 0-8 3-15 9-20-85-10-150-84-150-174 0-5 0-10 0-14 11 0 21 0 31 0z m-62-11l400 0 0-35-400 0z m236-60c-21-10-92-35-92-35l-83 5c0 0 48 13 66 17 19 4 11 25 0 25-10 0-99-3-99-3l-60-22 16-99c0 0 12 21 24 21 12 0 119-3 133 0 15 2 102 63 113 70 10 7 2 31-18 21z m-348-23l0-130 91 17-23 125z"/>
<glyph glyph-name="food-food-drink" unicode="&#88;" d="M328 447c-29 0-52-37-52-83 0-37 15-68 37-78l0-233 31 0 0 233c21 10 37 41 37 78 0 46-23 83-53 83z m-198 1l0-112c0-6 2-12 5-16l32-38 0-229 30 0 0 229 30 39c3 4 5 10 5 15l0 112-26 0 0-102-12 0 0 102-26 0 0-102-13 0 0 102z m-40 64l332 0c7 0 13-6 13-13l0-486c0-7-6-13-13-13l-332 0c-7 0-13 6-13 13l0 486c0 7 6 13 13 13z"/>
<glyph glyph-name="food-four" unicode="&#89;" d="M75 158l0 141 7 0 0 10c0 0-10 23 0 59 0 8 0 105 0 105l0 0c0 0 0 0 0 0 0 7-6 13-13 13-7 0-13-6-13-13 0 0 0 0 0 0l0 0c0 0 0-95 0-104 7-44-2-60-2-60l0-10 8 0 0-141c-35-4-62-33-62-68 0-38 31-69 68-69 38 0 68 31 68 69 0 35-27 64-61 68z m-21-29c3 0 5-2 5-4 0-2-2-4-5-4-2 0-4 2-4 4 0 2 2 4 4 4z m-7 16c2 0 4-2 4-4 0-3-2-5-4-5-3 0-5 2-5 5 0 2 2 4 5 4z m6-57c0-2-1-4-4-4-2 0-4 2-4 4 0 2 2 4 4 4 3 0 4-2 4-4z m-11 34c3 0 5-2 5-5 0-2-2-4-5-4-2 0-4 2-4 4 0 3 2 5 4 5z m-2-18c0-2-2-4-5-4-2 0-4 2-4 4 0 2 2 4 4 4 3 0 5-2 5-4z m-5-14c0-3-2-5-4-5-2 0-4 2-4 5 0 2 2 4 4 4 2 0 4-2 4-4z m-5 42c3 0 4-2 4-4 0-3-1-5-4-5-2 0-4 2-4 5 0 2 2 4 4 4z m-12-18c3 0 5-2 5-5 0-2-2-4-5-4-2 0-4 2-4 4 0 3 2 5 4 5z m-9-25c0 2 2 4 5 4 2 0 4-2 4-4 0-3-2-5-4-5-3 0-5 2-5 5z m10-27c-3 0-5 2-5 4 0 2 2 4 5 4 2 0 4-2 4-4 0-2-2-4-4-4z m11-15c-2 0-4 1-4 4 0 2 2 4 4 4 2 0 4-2 4-4 0-3-2-5-4-4z m3 25c-3 0-5 2-5 4 0 2 2 4 5 4 2 0 4-2 4-4 0-2-2-4-4-4z m5-10c0 2 2 4 4 4 3 0 5-2 5-4 0-3-2-5-5-5-2 0-4 2-4 5z m9-28c-3 0-5 2-5 4 0 3 2 5 5 5 2 0 4-2 4-5 0-2-2-4-4-4z m6 15c-2 0-4 2-4 4 0 3 2 5 4 5 3 0 5-2 5-5 0-2-2-4-5-4z m3 21c-3 0-5 2-5 4 0 3 2 5 5 5 2 0 4-2 4-5 0-2-2-4-4-4z m0 27c-3 0-5 2-5 5 0 2 2 4 5 4 2 0 4-2 4-4 0-3-2-5-4-5z m49 8c3 0 5-2 5-4 0-2-2-4-5-4-2 0-4 1-4 4 0 2 2 4 4 4z m-14 39c2 0 4-2 4-4 0-3-2-4-4-4-2 0-4 1-4 4 0 2 2 4 4 4z m-7-16c2 0 4-2 4-5 0-2-2-4-4-4-2 0-4 2-4 4 0 3 2 5 4 5z m5-35c2 0 4-2 4-4 0-3-2-5-4-5-2 0-4 2-4 5 0 2 2 4 4 4z m-6 14c2 0 4-2 4-5 0-2-2-4-4-4-3 0-5 2-5 4 0 3 2 5 5 5z m-14 372c4 0 8-3 8-8 0-4-4-17-8-17-4 0-7 13-7 17 0 5 3 8 7 8z m0-355c-2 0-4 2-4 4 0 2 2 4 4 4 2 0 4-2 4-4 0-2-2-4-4-4z m4-17c0-2-2-4-5-4-2 0-4 2-4 4 0 3 2 5 4 5 3 0 5-2 5-5z m-9 38c0 3 2 5 4 5 3 0 5-2 5-5 0-2-2-4-5-4-2 0-4 2-4 4z m4-115c-2 0-4 2-4 4 0 2 2 4 4 4 3 0 5-2 5-4 0-2-2-4-5-4z m0 17c-2 0-4 1-4 4 0 2 2 4 4 4 3 0 5-2 5-4 0-3-2-4-5-4z m3 19c-2 0-4 2-4 4 0 3 2 4 4 4 2 0 4-1 4-4 0-2-2-4-4-4z m-2 16c-3 0-6 3-6 7 0 3 3 6 6 6 3 0 6-3 6-6 0-4-3-7-6-7z m14-3c2 0 4-1 4-4 0-2-2-4-4-4-3 0-5 2-5 4 0 2 2 4 5 4z m-5-26c0 3 2 5 5 5 2 0 4-2 4-5 0-2-2-4-4-4-3 0-5 2-5 4z m11-20c-2 0-4 1-4 4 0 2 2 4 4 4 2 0 4-2 4-4 0-3-2-4-4-4z m6 24c-2 0-4 2-4 5 0 2 2 4 4 4 3 0 4-2 4-4 0-3-1-5-4-5z m0 53c-2 0-4 2-4 4 0 3 2 5 4 5 3 0 4-2 4-5 0-2-1-4-4-4z m6-38c0 3 2 5 4 5 3 0 5-2 5-5 0-2-2-4-5-4-2 0-4 2-4 4z m7-27c-3 0-5 2-5 4 0 3 2 5 5 5 2 0 4-2 4-5 0-2-2-4-4-4z m0 37c-3 0-5 2-5 5 0 2 2 4 5 4 2 0 4-2 4-4 0-3-2-5-4-5z m1 41c-3 0-5 2-5 5 0 2 2 4 5 4 2 0 4-2 4-4 0-3-2-5-4-5z m12-58c-2 0-4 2-4 4 0 2 2 4 4 4 3 0 5-2 5-4 0-2-2-4-5-4z m8 25c0-2-2-4-5-4-2 0-4 2-4 4 0 3 2 5 4 5 3 0 5-2 5-5z m-5 20c0-2-2-4-4-4-2 0-4 2-4 4 0 3 2 4 4 4 2 0 4-1 4-4z m86 57l0 128 9 0 0 9c0 0-11 25-1 62 0 7 0 107 0 107l0 0c0 0 0 0 0 0 0 7-5 13-13 13-7 0-13-6-13-13 0 0 0 0 0 0l0 0c0 0 0-98 0-107 8-45-2-62-2-62l0-9 10 0 0-128c0 0-40-32-40-41 0-9 0-43 0-47 0-4-1-58 23-58 7 0 19 0 21 0 1 0 1 0 1 0 2 0 14 0 21 0 23 0 23 54 23 58 0 4 0 38 0 47 0 9-35 37-39 41z m-33-133l-5 0 0 90 5 0z m16-2l-6 0 0 76 6 0z m5 439c0 4 4 8 8 8 4 0 7-4 7-8 0-4-3-18-7-18-4 0-8 14-8 18z m4-439l0 66 5 0 0-66z m19 0l-5 0 0 76 5 0z m14 3l-5 0 0 90 5 0z m109 225l5 0 0 12c0 0-13 28-1 72 0 9 0 126 0 126l0 0c0 0 0 0 0 0 0 8-7 15-16 15-8 0-15-7-15-15 0 0 0 0 0 0l0 0c0 0 0-115 0-126 9-53-2-72-2-72l0-12 6 0c-1-19-12-49-23-81-13-39-27-80-25-103 2-26 13-39 23-45 8-6 17-9 26-9 4 0 7 0 10 1l5 2c2-1 3-1 5-1 9 0 19 3 27 9 9 6 20 19 23 45 2 24-12 64-26 103-11 31-21 60-22 79z m-11 217c5 0 9-4 9-9 0-5-4-21-9-21-5 0-9 16-9 21 0 5 4 9 9 9z m-34-441c-8 6-18 17-20 40-2 23 12 62 25 101 3 7 5 15 8 23-11-49-24-110-25-119 0-28 21-45 34-53-8 1-15 3-22 8z m-5 45c0 7 9 49 18 91-5-42-10-84-10-93 0-12 11-32 21-45-12 7-30 23-29 47z m14-2c0 11 7 67 14 115-4-73-3-86-3-100 0-4 0-9 0-15 0-18 5-31 9-40-9 10-20 28-20 40z m24-33c-3 8-6 19-6 33 0 7 0 11-1 16 0 16 0 32 6 161 0 2 1 3 1 4l1 0c0 0 0-1 0-2 7-128 6-144 6-161 0-5 0-9 0-16 0-15-4-27-7-35z m5-5c3 9 8 22 8 40 0 7 0 11 0 16 1 13 1 26-2 99 6-48 13-104 13-115 0-11-11-29-19-40z m4-5c4 5 6 9 8 11 5 8 13 23 13 34 0 9-5 52-10 94 9-43 18-85 19-92 0-24-18-39-30-47z m44 43c-2-24-12-35-20-41-6-5-14-7-21-7 12 7 34 24 33 53-1 8-14 69-25 118 3-8 6-15 8-23 13-39 27-78 25-100z m126-20l1 0c-1 0-1 0-1 0 0 1 0 2-1 3-24 46-44 124-45 157l0 36 11 0 0 12c0 0-13 30-1 75 0 10 0 132 0 132l0 0c0 0 0 0 0 1 0 9-7 16-16 16-9 0-17-7-17-16 0-1 0-1 0-1l0 0c0 0 0-120 0-131 10-56-2-76-2-76l0-12 10 0 0-33c0-29-20-112-45-160-1-1-2-3-2-4 0-11 25-19 55-19 29 0 54 8 54 19 0 0 0 1-1 1z m-51 423c5 0 9-4 9-9 0-6-4-23-9-23-6 0-10 17-10 23 0 5 4 9 10 9z m-2-406c-17 0-32-3-42-7 21 44 37 108 40 142l3 0c3-34 20-98 40-142-10 4-25 7-41 7z"/>
<glyph glyph-name="food-lunch" unicode="&#90;" d="M235 72c7-1 14-1 22-1 8 0 16 0 24 1l3 111c-7 4-14 8-19 14-11 11-16 26-15 42l6 76c-7-9-16-16-28-21z m162 396l0-49c47-40 76-99 76-164 0-66-29-125-76-165l0-48c69 45 115 123 115 213 0 89-46 167-115 213z m-132 17l0-13c1 0 2 0 4 0 5 15 14 28 26 37-12 2-26 3-38 3-1 0-4 0-5 0 7-8 13-17 13-27z m132-112l0-235c27 32 43 73 43 118-1 43-16 85-43 117z m-303-32c-14-26-22-55-22-85 0-49 19-93 50-126l6 167c-19 5-32 22-34 44z m184-305l0 3c-8-1-14-1-22-1-7 0-14 0-21 1l0-3c0-12-4-25-12-34 10-1 21-2 31-2 12 0 23 1 34 2-5 9-10 22-10 34z m-239 219c0 54 21 105 55 143l0 54c-57-47-93-118-93-197 0-91 47-171 119-217l1 47c-49 39-82 102-82 170z m305 247c-29 0-54-23-57-52l-14-212c-2-9 2-18 9-25 6-7 14-12 25-12l1 0-6-166c0-7 2-14 8-19 5-6 11-8 19-8l20 0c14 0 26 12 26 26l0 437c0 17-14 31-31 31z m-138-187l5 0c17 0 32 13 32 30l0 140c0 5-4 10-10 10l-2 0c-6 0-9-5-9-10l0-92c0-8-7-15-15-15l-2 0c-8 0-15 7-15 15l0 92c0 5-5 10-9 10l-2 0c-6 0-11-5-11-10l0-92c0-8-6-15-14-15l-3 0c-8 0-14 7-14 15l0 92c0 5-5 10-9 10l-3 0c-5 0-9-5-9-10l0-140c0-17 14-30 31-30l4 0-9-280c0-7 3-14 7-19 5-5 11-8 18-8l21 0c6 0 13 3 18 8 4 4 8 12 7 19z"/>
<glyph glyph-name="food-mug" unicode="&#48;" d="M448 176c-18 0-32-14-32-32 0-18 14-32 32-32 18 0 32 14 32 32 0 18-14 32-32 32z m-416 80l0-24c0-101 83-184 184-184 101 0 184 83 184 184l0 24z m-32 32l432 0 0-56c0-8 0-17-1-25l-1-1 2 0c5 1 10 2 16 2 35 0 64-29 64-64 0-35-29-64-64-64-22 0-42 11-53 28l-1 2-3-5c-23-32-55-57-91-72l-2-1 110 0c9 0 16-7 16-16 0-9-7-16-16-16l-368 0c-9 0-16 7-16 16 0 9 7 16 16 16l94 0-2 1c-77 33-132 110-132 199z m134 173c1 0 2 0 3 0 7-1 14-5 19-11 9-10 13-23 12-38l0 0c0-8-3-20-7-38l-2-7c-1-6-2-12-3-18 0 0 0-1 2-3 4-8 1-18-7-22-3-1-5-2-8-2-5 0-11 3-14 9-3 5-6 13-5 22 1 7 3 14 4 21l2 7c2 10 6 28 6 32 0 6 0 10-2 14-6-2-13-1-17 4-6 6-6 16 0 22 5 5 11 7 17 8z m154 0c0 0 1 0 2 0 8-1 14-4 19-10 12-15 16-33 11-55-1-7-3-14-5-21-1-5-3-9-4-14-1-4-2-8-2-11 0-1 1-2 1-4 5-7 2-17-6-21-2-2-5-3-7-3-6 0-11 3-14 9-4 5-6 13-6 19 0 7 2 13 3 19 1 5 3 9 4 14 2 7 3 13 5 20 2 12 1 19-2 24-6-2-12-1-16 4-7 6-6 16 0 22 5 5 10 7 17 8z m-75 51c7 0 14-4 19-9 10-12 12-26 13-36 0-2 0-5 0-7l0-3c0-6-1-13-3-24-1-12-3-27-5-37-1-12-3-25-5-38 0-6 0-10 2-13 5-7 3-17-4-22-3-2-6-3-9-3-5 0-10 2-13 7-9 12-8 26-7 35 1 13 3 26 5 39 2 18 6 50 7 56l0 3c0 2 0 3 0 5 0 5-1 10-3 13-6-2-12 0-16 5-6 6-6 16 1 22 5 5 12 7 18 7z"/>
<glyph glyph-name="food-mug-2" unicode="&#49;" d="M137 326c-34-7-60-36-60-72 0-36 26-66 60-72z m278 89l0-290 30 0 0 290 0 0z m-249 50l299 0c17 0 30-13 30-30l0-358c0-17-13-30-30-30l-299 0c-16 0-29 13-29 30l0 45c-67 7-120 63-120 132 0 68 53 125 120 132l0 49c0 17 13 30 29 30z"/>
<glyph glyph-name="food-restaurant" unicode="&#50;" d="M0 107l512 0 0-23-512 0z m256 321c18 0 32-13 32-29 0-13-9-23-21-27l0-9 4 0 0-8-4 0 0-9c116-5 208-91 208-196 0-3-1-5-1-7l-62 0c-13 146-119 164-119 164 90-39 87-156 87-164l-342 0c0 2-1 4-1 7 0 105 92 191 208 196l0 9-4 0 0 8 4 0 0 9c-12 4-21 14-21 27 0 16 14 29 32 29z"/>
<glyph glyph-name="food-snack-burger" unicode="&#51;" d="M33 133l446 0 0-57-446 0z m135 123c33 0 65-35 88-13 25 24 78-12 100-12 23 0 48 19 87 23 39 5 44-40 62-51 18-12-2-34-25-50-15-10-46 13-60 29l0 0 0 0c3 4 2 9-4 11-6 2-4-2 2-9l2-2-1-2c-8-10-34-22-76-26-64-5-69 29-69 29 0 0-16-5-71-24-55-20-75 27-75 27 0 0-32-22-78-27-46-4-11 22-32 39-20 16-27 11 0 42 28 31 48 0 48 0 0 0 55 5 92 15 3 0 6 1 10 1z m87 180c99 0 183-38 224-92l0-68-446 0 0 68c41 54 123 92 222 92z"/>
<glyph glyph-name="food-snack-french-fries" unicode="&#52;" d="M32 350c8-4 105-48 226-48 121 0 208 41 216 45l-57-347-328 0z m295 44l22-72c-13-2-26-4-41-5z m-162 7l11-77c-9 2-17 3-25 5z m-42 42l36-7-20-105c-14 3-26 7-38 10z m319 25l38-14-39-109c-9-3-19-7-31-10l0 0-7 21 6 22z m-101 5l50-141c-13-3-21-5-35-8l-27 93z m-269 5l24-86-12-54c0 0-14 5-18 7l-34 122z m159 19l41-1-2-35-30-143-13 111z m69 5l40-10-42-177c-12 0-24-1-36-1-2 0-4 0-6 0l13 61z m71 5l40-3-9-106-6-19-29 85z m-168 5l25-201c-14 1-27 2-40 4l-26 192z"/>
<glyph glyph-name="food-wine" unicode="&#53;" d="M75 231c-6-32 14-63 46-70 32-7 64 14 71 46l10 90c-32 17-20-55-76-43-38 8-49-16-51-23z m414-108c-2 8-11 12-18 9l-40-13-25 76c20 10 37 26 48 47 12 26 15 54 5 83l-66 152-175-58 12-48-150 32-50-159c-6-28-1-57 15-81 13-19 31-34 53-41l-17-79-41 9c-8 2-16-3-17-11-2-8 3-15 11-17l55-12c0 0 0 0 0 0 0 0 0 0 0 0l56-12c1 0 2 0 3 0 6 0 12 4 14 11 1 8-4 16-11 17l-42 9 17 78c3 0 6 0 8 0 50 0 94 35 104 85l12 88 8-32c14-43 55-73 101-73 6 0 13 1 19 3l25-76-40-14c-7-2-11-10-9-18 2-6 8-10 14-10 1 0 3 1 4 1l108 36c8 2 12 11 9 18z m-279 82c-9-41-51-69-92-60l0 0c-20 5-38 17-49 34-11 18-15 38-11 57l41 134 129-28z m76 59l-34 136 125 41 55-127c7-19 5-40-4-59-9-18-25-32-45-39-8-2-16-4-24-4-34 0-63 22-73 52z m130 42c-3 6-16 30-53 17-54-18-50 56-80 35l20-89c10-31 44-48 75-37 31 10 48 43 38 74z m-249 173c9 1 16 9 16 18-1 9-8 15-17 15-9-1-16-8-16-17 1-9 8-16 17-16z m64-28c9 0 15 8 15 17-1 9-8 16-17 15-9 0-16-8-16-17 1-9 8-16 18-15z m-73-14c1-9 8-16 17-15 10 0 16 8 16 17-1 9-8 16-17 15-9 0-16-8-16-17z"/>
<glyph glyph-name="food-wine-2" unicode="&#54;" d="M416 428l0 0c19-79 31-171-6-198 0-1 1-2 1-2-1-2-3-37 4-65 1-3 1-6 2-9 11-30 19-40 35-42 16-2 49-1 58 0 0-1 1-4 2-5-6-2-33-9-90-16-56-7-85-7-93-7 0 1 0 4 0 5 8 2 40 9 54 15 15 6 18 17 13 48 0 2-1 5-2 9-6 28-25 61-26 61 0 2-1 3-1 4-5 2-9 5-14 8-47 36-78 146-83 176z m-320 0l146-18c-5-30-36-140-83-176-5-3-9-6-14-8 0-1-1-2-1-4-1 0-20-33-26-61-1-4-2-7-2-9-5-31-2-42 13-48 14-6 46-13 54-15 0-1 0-4 0-5-8 0-37 0-93 7-57 7-84 14-90 16 1 1 2 4 2 5 9-1 42-2 58 0 16 2 24 12 35 42 0 3 1 6 2 9 7 28 5 63 4 65 0 0 1 1 1 2-37 27-25 119-6 198z"/>
<glyph glyph-name="other-alarm-clock" unicode="&#55;" d="M149 369c0-2-2-2-2-3 26-56 66-100 106-141-2-3-3-8-3-13 0-6 1-13 6-18-14-11-24-27-34-43-9-14-24-32-22-54 19 5 30 22 42 37 11 16 20 32 28 49 4 0 5-1 8-1 16 0 29 12 29 28 0 16-13 29-29 29-6 0-11-1-16-5-32 50-65 100-113 133 1 2 0 2 0 2z m99 53l11 0c67 0 112-28 146-63 30-32 54-80 54-137-2-58-26-104-54-136-29-31-77-58-131-61l-24 0c-60 3-101 32-132 62-30 31-54 80-54 136 0 59 22 104 54 138 31 32 76 57 130 61z m11 56c13 0 24-12 24-24 0-13-11-24-24-24-13 0-24 11-24 24 0 12 11 24 24 24z m-161 3l17 0c32-5 55-16 71-37l-159-139c-16 14-24 35-27 61l0 17c10 56 42 90 98 98z m299 6l17 0c53-6 96-46 98-102 1-31-10-55-26-74-54 47-107 93-160 139 16 20 39 32 71 37z"/>
<glyph glyph-name="other-alarm-clock-2" unicode="&#56;" d="M261 154c5 0 9-4 9-9l0-23c0-4-4-9-9-9-5 0-10 5-10 9l0 23c0 5 3 9 10 9z m109 103l22 0c5 0 9-5 9-10 0-5-4-10-9-10l-22 0c-5 0-10 5-10 10 0 6 5 10 10 10z m-250 0l23 0c4 0 9-5 9-10 0-5-5-10-9-10l-23 0c-5 0-9 5-9 10 0 6 3 10 9 10z m141 123c9 0 16-8 16-16l0-117c0-5-2-8-5-11l-82-82c-6-6-16-6-22 0-6 7-6 16 0 23l77 76 0 111c0 9 6 16 16 16z m-5 38c-91 0-166-75-166-166 0-91 75-166 166-166 91 0 166 75 166 166 0 93-75 166-166 166z m0 45c115 0 209-94 209-210 0-67-32-126-80-164l26-50c6-11 2-25-10-30-11-7-25-2-30 9l-24 47-3-2c-27-13-56-19-88-19-32 0-64 8-91 21l-5 1-25-49c-7-11-20-16-31-10-11 7-16 19-9 31l28 54-3 3c-45 39-72 96-72 158-1 116 93 210 208 210z m185 45c18 0 34-7 48-20 29-27 31-72 4-100-4-3-7-7-10-8l-102 96c1 3 4 6 8 9 14 15 33 23 52 23z m-370 0c19 0 38-8 52-23 4-3 5-6 8-9l-102-96c-3 3-6 5-10 8-27 28-25 73 4 100 12 13 30 20 48 20z"/>
<glyph glyph-name="other-ant" unicode="&#57;" d="M206 512c0 0 0 0 0 0 3-2-11-50-24-59 15-4 24-8 37-17 10 15 23 25 35 25 15 0 28-10 37-25 13 9 23 13 37 17-13 9-27 57-24 59 3 0 18-21 31-45 8-14 6-21 1-22-3-2-17-13-37-25 7-16 12-36 12-59 0-21-13-24-33-24 13-6 25-18 29-34 28 18 55 28 60 29 5 2 48 32 57 37 2 3 36 48 41 43 4-3-32-51-34-54-31-39-63-40-66-45-3-6-22-24-54-31 0-8 0-17-2-24 21 7 43 12 56 12 13 0 58-13 66-18 3-2 54 0 54-6 0-7-51-8-52-5-20-3-73 6-78 6-6-1-48-14-49-14-3-16-8-24-13-34 21 0 59-21 82-43 17-18 48-48 51-55 16-24 10-101 0-101-8 0 10 69-6 93-5 7-60 45-66 53-7 6-35 18-51 27 12-9 20-24 20-41 0-76-38-106-65-106-29 0-68 30-68 106 0 17 8 30 19 40l2 1c-16-9-45-19-51-27-7-8-61-45-66-53-16-24 0-93-7-93-9 0-16 77 0 101 4 5 34 34 52 53 21 23 59 43 82 43-5 10-10 20-13 34 0 0-43 13-50 15-5 1-58-10-77-7-3-3-54 0-54 5 0 6 51 5 54 6 8 4 53 18 66 16 13 0 35-4 54-11-1 8-1 16-1 24-32 5-52 24-55 31-3 8-33 9-64 48-3 1-38 50-34 53 5 5 39-39 39-44 10-4 51-33 58-36 4-2 32-12 59-29 5 16 14 29 29 33-18 0-32 4-32 24 0 23 5 44 11 60-19 13-34 24-37 26-5 1-6 8 2 22 12 23 26 45 30 45z"/>
<glyph glyph-name="other-bat" unicode="&#33;" d="M187 359c-54-41 10-56 10-56 45-1 41 55 41 55 2-8 5-13 8-16 4-4 7-5 10-5 5 0 8 1 10 5l1 1c3 3 5 7 7 15 0 0-4-56 41-55 0 0 63 15 10 56 0 0 131-16 187-99 0 0-90 53-114-38 0 0-84 52-140-63l-2-6 0 1-2 5c-54 115-140 63-140 63-24 91-114 38-114 38 56 83 187 99 187 99z"/>
<glyph glyph-name="other-bee" unicode="&#34;" d="M249 83l19 0-8-56c0 0-10 49-11 56z m91 64l3 0c-18-31-49-50-85-50-35 0-67 19-84 48l1 0c71-21 128-11 165 2z m1 99l2-2c8-14 13-30 13-49l0-8-3-2c-69-30-154-13-190-2l-2 0 0 12c0 16 3 31 11 44l2 0c84-35 148-5 167 7z m-83 46c26 0 50-10 67-27l2-2-2 0c-49-24-111-11-140-3 18 21 45 32 73 32z m182 59c21 0 39-5 48-16 39-43 35-117-46-99-81 18-148 62-160 75l23 8c1 0 78 32 135 32z m-367 0c56 0 134-32 134-32l23-8c-12-13-79-57-160-75-81-18-85 56-46 99 11 13 28 16 49 16z m185 81c32 0 56-25 56-55 0-32-25-56-56-56-32 0-55 25-55 56-2 30 23 55 55 55z m-54 36l5-8-2 0c-1 0-4 1-6 3 0 1 2 5 3 5z m109 17c3 0 4 0 8-2 12-4 19-19 12-31-6-16-24-24-39-18l9 19 2 0c6-1 12 2 14 8 2 5 0 11-5 13-5 2-8 0-11-5-1-3 0-5 2-7l1-1 5 7c2-2 3-4 2-5-2-2-4-3-7-3l0 0-3-7c-8 3-11 13-8 21 3 6 10 11 18 11z m-109 0c8 0 14-5 18-13 3-8 0-17-8-20l-5 8c3 1 5 4 3 8-2 4-6 6-11 4-5-1-8-8-5-12 3-7 10-10 14-8l2 0 10-18c-16-6-34 2-40 18-5 12 1 27 13 31 3 2 6 2 9 2z"/>
<glyph glyph-name="other-bird" unicode="&#35;" d="M203 331c-8 0-11-3-11-3-62-37-2-94-2-94 93-55 165 56 165 56-46-10-86 12-86 12-34 24-55 29-66 29z m-109 66c-8-2-12-10-11-18 2-8 10-13 18-11 8 2 13 10 11 18 0 6-6 11-14 11z m396 57c0 0 11-20-2-38 0 0 22-2 24-8 0 0-86-66-106-125 0 0-33-96-123-139 0 0-1 0-5-2l-11-84-16 3 19 80c-11-3-28-7-48-7l-1 0-13-67-11 0 17 67-1 0c-31 2-67 12-96 44 0 0-56 59-66 139l-37 0 29 35-43 40 40 3c0 0 32 79 117 51 0 0 29-3 88-104 0 0 49-73 150 13 0 2 72 56 95 99z"/>
<glyph glyph-name="other-bird-2" unicode="&#36;" d="M94 250c-3 0-6-3-6-7 0-3 3-6 6-6 3 0 7 3 7 6 0 4-4 7-7 7z m360 262c0-30-45-51-45-51 42-21-1-51-1-51 35-16-16-50-16-50 27-14-10-48-10-48 46-22-13-51-13-51 58-30-65-125-65-125l0-3c22 2 104 3 150-32 0 0 19-13 0-42 0 0-8-9-29-4 0 0 10-28-19-36 0 0-22-1-29 4 0 0-1-21-19-23 0 0-16-6-34 40 0 0-16 31-28 42l-7 0c-137-83-187 107-187 107-29 46-53 30-53 30l24 37c29 37 117-41 117-41 16 291 264 297 264 297z"/>
<glyph glyph-name="other-cake" unicode="&#37;" d="M177 150l-1-2 0-2c2-43 29-89 78-89 48 0 76 46 78 89l0 3-1-2c-23-48-79-46-79-46-55 0-75 49-75 49z m8 362c0 0 22-31 22-56 0-24-9-36-21-36l13 0 0-80 46 0 0 80 8 0c-11 0-20 12-20 35 0 25 21 57 21 57 0 0 22-31 22-56 0-24-9-36-21-36l12 0 0-80 46 0 0 80 10 0c-12 0-21 12-21 35 0 25 22 57 22 57 0 0 21-31 21-56 0-24-9-36-20-36l10 0 0-80 68 0 0-41c-22-46-75-44-75-44-52 0-73 47-73 47l0-1 0-3c2-41 28-85 75-85 41 0 62 36 73 72l0-81 34 0 0 80 8 0c-11 0-21 12-21 35 0 25 22 57 22 57 0 0 22-31 22-56 0-24-10-36-21-36l13 0 0-80 23 0 0-64c-23-40-75-39-75-39-55 0-75 49-75 49l-1-1 0-3c2-43 29-89 78-89 37 0 61 27 73 59l0-116-454 0 0 113c12-31 34-56 70-56 48 0 75 46 77 89l0 2 0-1c-24-48-79-46-79-46-37 0-56 23-68 37l0 66 23 0 0 91 10 0c-11 0-20 8-20 32 0 24 21 53 21 53 0 0 22-29 22-54 0-23-9-31-21-31l11 0 0-91 34 0 0 81c0-37 30-72 72-72 46 0 72 44 74 85l0 3-2-4c-23-44-74-42-74-42-45 0-70 34-70 44l0 41 68 0 0 80 7 0c-11 0-21 12-21 35 0 25 22 57 22 57z"/>
<glyph glyph-name="other-calendar-add" unicode="&#38;" d="M407 183l0-46-46 0 0-23 46 0 0-46 24 0 0 46 46 0 0 23-46 0 0 46z m10 41c52 0 95-42 95-95 0-53-43-95-95-95-53 0-95 42-95 95 0 53 42 95 95 95z m-244 78c7 0 14-1 20-4 6-3 10-7 14-13 3-5 4-11 4-16 0-6-1-11-4-16-3-4-8-8-14-11 8-2 14-5 18-11 5-5 7-12 7-21 0-11-4-21-13-29-8-7-18-11-31-11-11 0-21 3-28 10-8 7-12 15-13 26l16 2c1-9 5-15 9-19 4-4 10-6 16-6 8 0 14 2 19 8 5 5 8 11 8 19 0 7-3 13-7 18-5 5-11 7-19 7-3 0-6 0-11-2l2 14c1 0 2 0 2 0 7 0 13 2 19 6 5 3 8 8 8 16 0 6-2 11-6 14-4 4-9 6-15 6-6 0-12-2-16-6-4-4-7-9-8-17l-16 3c2 10 7 19 14 24 6 6 15 9 25 9z m110 0l10 0 0-130-15 0 0 102c-4-4-9-8-16-11-6-4-11-7-16-9l0 16c9 4 16 9 23 15 7 6 11 12 14 17z m-244 139l43 0 0-48 77 0 0 48 109 0 0-48 78 0 0 48 46 0c22 0 39-17 39-38l0-154c-5 1-9 1-14 1-9 0-18-1-27-3l0 98-349 0 0-210 255 0c0-2-1-4-1-6 0-14 3-27 7-39l-302 0 0 45 0 0 0 268c0 21 17 38 39 38z m244 37l48 0 0-69-48 0z m-186 0l48 0 0-69-48 0z"/>
<glyph glyph-name="other-candle" unicode="&#39;" d="M165 242l189-45 1-192-189-5c-3 0-9 3-9 5l0 235c0 0 5 2 8 2z m107 270c10-35 24-64 40-98 11-25 26-54 29-81 5-39-8-85-51-93-18-3-31-2-47 5l-6 5c-19 11-34 32-37 51-5 27 3 48 19 69 13 17 32 33 40 54 11 27 13 59 13 88z"/>
<glyph glyph-name="other-cat" unicode="&#40;" d="M390 326c-10 0-16-6-16-16 0-9 6-16 16-16 9 0 16 7 16 16 0 10-8 16-16 16z m-79 4c-9 0-16-7-16-16 0-10 7-16 16-16 10 0 16 6 16 16 0 9-8 16-16 16z m-129 182c9 0 16-2 16-2 56-9 73-38 73-38 2-48-32-24-32-24-48 38-96 0-96 0-40-42-3-77-3-77l5 2c26 9 58 14 94-2 0 0-24-77 23-125 0 0 29-40 72-28l1 0c-25 6-57 25-70 84 0 0-3 52 8 84 0 0 5 12 8 14 0 0 24-10 50-50 0 0 19 8 52-4 0 0 37 32 48 36 0 0 13 10 15-8 0 0 21-123-72-156 0 0-3-2-10-2l-46-195c-3-10-13-18-24-18-13 0-24 11-24 24l0 7 14 78c-3-2-8-3-11-3-5 0-10 1-14 5l-2 1-18-91c-1-11-11-21-22-21-11 0-21 8-22 18l0 131-39 8 0-136c0-14-11-24-25-24-15 0-26 11-26 24 0 13-42 213-40 218 0 0-6 48 19 88l2 1 0 2c-47 70-2 133-2 133 34 40 75 46 98 46z"/>
<glyph glyph-name="other-chopper" unicode="&#41;" d="M46 134c5 0 10-3 10-8 2-1 13-12 69-12l219 0c6 0 10-5 10-10 0-6-5-10-10-10l-218 0c-78 0-89 20-89 31 0 5 5 9 9 9z m109 183c-35 0-96-34-96-74 0-16 16-22 71-22 35 0 46 16 46 37 0 32-3 59-21 59z m311 37c25 0 46-21 46-45 0-26-21-47-46-47-15 0-28 7-37 18l24 6c3-1 8-3 11-3 14 0 24 11 24 24 0 13-8 26-22 26-7 0-13-3-18-7l-26 0c8 16 24 28 44 28z m-248 64c6 0 9-5 9-10l0-2 189 10c11 0 19-8 19-19 0-11-8-19-19-19l-189 11 0-39c19-6 34-17 43-32l196 0c9 0 12-16 1-19-3 0-105-25-173-41 2-10 2-18 2-28 0-70-61-70-136-70-75 0-136 0-136 70 0 71 91 127 168 127 6 0 13 0 18-2l0 34-191-10c-11 0-19 8-19 18 0 11 8 19 19 19l189-10 0 2c0 5 3 10 10 10z"/>
<glyph glyph-name="other-christmas" unicode="&#42;" d="M254 429c7 0 13-3 15-6 11-29 79-66 114-79 5-2 8-5 8-8 0-4-3-7-9-7-2 0-23-9-66-14 37-29 91-55 125-66 7-2 11-7 11-12 0-4-4-8-12-9-4 0-28-11-81-18 45-30 101-56 139-68 9-3 14-8 14-14 0-5-6-11-16-13-5-1-77-32-240-32-163 0-235 31-240 32-10 2-16 8-16 13 0 6 5 11 14 14 39 12 94 39 139 68-53 7-77 18-81 18-8 1-12 6-12 9 0 5 3 9 11 12 35 11 88 37 125 66-46 5-67 14-70 14-5 2-8 3-8 7 0 3 3 6 8 8 37 11 103 50 114 79 2 3 8 6 14 6z"/>
<glyph glyph-name="other-christmas-2" unicode="&#43;" d="M224 112l0-80 64 0 0 80z m32 359l-66-79 24-2c6 0 12-5 14-10 2-6 1-13-4-17l-107-111 20-5c6-1 10-5 12-11 1-6 0-11-4-16l-74-76 370 0-74 76c-4 5-6 10-4 16 2 5 6 10 11 11l21 5-108 111c-4 4-5 11-3 17 2 6 7 10 13 10l25 2z m0 41c4 0 9-2 12-5l98-118c4-4 5-11 3-16-2-6-8-10-14-10l-21-2 103-106c4-4 6-10 4-16-1-5-6-9-11-11l-21-5 79-82c4-3 7-7 7-13 0-9-7-16-16-16 0 0 0 0 0 0l-159 0 0-112-128 0 0 112-159 0c-6 0-12 4-15 10-2 6-1 13 4 17l80 84-20 5c-6 1-10 6-12 11-1 6 0 12 4 16l104 106-22 2c-6 0-11 4-13 10-3 5-2 11 2 16l99 118c3 3 7 5 12 5z"/>
<glyph glyph-name="other-christmas-3" unicode="&#44;" d="M256 512c37-5 50-29 59-69l40 0 0-27-33 0c3-19 8-42 14-66l45 0 0-27-37 0c6-21 14-43 24-65l50 0 0-28-37 0c9-20 22-43 38-65l53 0 0-27-37 0c11-16 24-32 37-48l-182 0 0-77 38 0 0-13-141 0 0 13 35 0 0 77-182 0c14 16 26 32 37 48l-32 0 0 27 49 0c15 22 28 45 39 65l-34 0 0 28 45 0c10 24 18 46 24 65l-34 0 0 27 42 0c6 24 11 47 16 66l-30 0 0 27 35 0c9 40 22 64 59 69z"/>
<glyph glyph-name="other-church" unicode="&#45;" d="M242 495l28 0 0-37 51 0 0-23-51 0 0-67 187-152-37 0 0-199-90 0 0 115c0 33-33 58-72 58-40 0-71-27-71-58l0-115-90 0 0 199-42 0 187 152 0 67-51 0 0 23 51 0z"/>
<glyph glyph-name="other-city" unicode="&#46;" d="M251 176l0-96 64 0 0 96z m20 129l32 0 0-32-32 0z m-175 31l32 0 0-32-32 0z m191 12l-127-100 0-168 59 0 0 128 128 0 0-128 69 0 0 168z m-127 52l32 0 0-32-32 0z m-64 0l32 0 0-32-32 0z m-37 32l0-352 69 0 0 183 107 84 0 85z m-32 32l240 0 0-92 20 16 161-125 0-183 48 0c9 0 16-7 16-16 0-9-7-16-16-16l-480 0c-9 0-16 7-16 16 0 9 7 16 16 16l11 0z"/>
<glyph glyph-name="other-city-2" unicode="&#47;" d="M297 239l53 0 0-106-53 0z m0 52l53 0 0-8-53 0z m79 9l18 0 0 80-18 0 0 17-79 0 0-35 79 0 0-18-79 0 0-8 79 0 0-18-79 0 0-9 79 0z m-79-35l53 0 0-9-53 0z m-232-221c3 20 21 30 38 30 17 0 32-10 38-25 5 12 8 43 41 51l0-59c13-6 22-18 26-32 0-3 1-6 1-9l26 0 0 97-35 0 0 18 35 0 0 9-35 0 0 17 71 0 0-8 17 0 0 291-17 0 0 17-18 0 0 18-9 0 0 53-18 0 0-53-8 0 0-18-18 0 0-17-18 0 0-316c-28-5-38-25-44-40-9 9-22 15-35 15-23 0-47-17-47-44 1 1 3 2 4 3 2 1 4 1 5 2z m135 362l71 0 0-18-71 0z m0-26l71 0 0-18-71 0z m0-27l71 0 0-17-71 0z m0-26l71 0 0-18-71 0z m0-27l71 0 0-17-71 0z m0-26l71 0 0-18-71 0z m0-27l71 0 0-17-71 0z m0-26l71 0 0-18-71 0z m0-27l71 0 0-17-71 0z m0-26l71 0 0-18-71 0z m176 123l-17 0 0-158 79 0 0-133 27 0 0 291z m0-17l18 0 0-18-18 0z m0-53l18 0 0-18-18 0z m45-18l-18 0 0 18 18 0z m-45-9l18 0 0-17-18 0z m27 0l18 0 0-17-18 0z m26 0l18 0 0-17-18 0z m0 9l0 18 18 0 0-18z m0 27l0 17 18 0 0-17z m-8 0l-18 0 0 17 18 0z m-45 17l18 0 0-17-18 0z m0-97l0 18 18 0 0-18z m27 0l0 18 18 0 0-18z m26 0l0 18 18 0 0-18z m18 106l-18 0 0 18 18 0z m-26 0l-18 0 0 18 18 0z m-221-256c0 3-1 6-2 9-3 8-8 16-16 22-6 4-14 7-22 7-17 0-31-11-37-25-6 15-21 26-38 26-7 0-14-2-20-5-2-1-3-1-5-2-1-1-3-3-4-4-5-5-9-12-9-21 0-3 0-7 1-7z m159 124l-115 0 0-124 18 0 0 89 150 0 0-89 17 0 0 124z m35-124l9 0 0 80-132 0 0-80 17 0 0 44 44 0 0-44 9 0 0 44 44 0 0-44z"/>
<glyph glyph-name="other-clouds" unicode="&#58;" d="M275 328c33 0 62-18 76-45 11 8 26 12 40 12 41 0 71-32 71-70l0-8c27-4 50-28 50-57 0-29-23-53-50-56l0-2-277 0c-38 0-69 31-69 69 0 39 31 70 69 70l3 0 0 1c0 47 39 86 87 86z m10 82c58 0 105-45 108-102-13 0-24-3-36-8-19 26-48 41-80 41-52 0-93-39-100-89-42-5-74-40-74-82 0-18 5-32 15-47l-47 0c-39 0-71 32-71 71-2 39 27 69 63 72l0 12c0 46 37 83 84 83 16 0 30-4 41-11 18 36 54 60 97 60z"/>
<glyph glyph-name="other-clouds-2" unicode="&#59;" d="M377 136c0 0 48-62 48-88 0-26-21-48-48-48-26 0-48 21-48 48 0 26 48 88 48 88z m-226 0c0 0 48-62 48-88 0-26-21-48-48-48-25 0-48 21-48 48 2 26 48 88 48 88z m114 62c0 0 48-62 48-88 0-25-21-48-48-48-26 0-48 21-48 48 1 26 48 88 48 88z m51 314c45 0 80-35 83-78 51-8 91-53 91-108 0-60-48-108-108-108l-252 0c-60 0-108 48-108 108 0 56 43 101 97 108 13 32 43 52 79 52 17 0 33-6 48-14 14 24 40 40 70 40z"/>
<glyph glyph-name="other-clouds-3" unicode="&#60;" d="M189 289l94 0 80-136-77 0 71-136-192 192 72 0z m65 206c58 0 108-43 124-104 9 3 19 3 28 3 60 0 106-48 106-105 0-39-19-71-50-90-11-9-27-16-43-16-5 0-8-1-13-1-4 0-8 0-12 1l-23 0-75 127-146 0 48-80-86 0 48-48-40 0c-5 0-10-2-13-2-59 3-107 48-107 104 0 56 48 102 106 102 8 0 16-1 24-3 14 64 64 112 124 112z"/>
<glyph glyph-name="other-clubs" unicode="&#61;" d="M250 512c72 0 129-56 129-126 0-8-1-18-3-26l0-2 6 0c72 0 130-56 130-126 0-70-58-126-130-126-51 0-94 28-116 70l0-5c20-144 144-171 144-171l-306 0c118 32 141 123 146 174l0 2-2-2c-21-44-66-75-118-75-72 0-130 56-130 127 0 67 54 123 123 126l2 0 0 2c-3 9-5 20-5 32 0 70 58 126 130 126z"/>
<glyph glyph-name="other-crab" unicode="&#62;" d="M321 105c0 0 47-43 38-88 0 0-35 55-58 61z m32 30c0 0 47-39 89-30 0 0-41-46-112 5 0 0 11 24 23 25z m-222 27l1-34c-22 6-82-20-82-20 17 45 81 54 81 54z m346 12c0 0-41-84-115-31l35 20c1 0 43-19 80 11z m-448 55c30-31 90-24 90-24 9-7 6-34 6-34-88-3-96 58-96 58z m271 54c-6 0-11-5-11-11 0-6 5-10 11-10 6 0 10 4 10 10 0 5-4 11-10 11z m-62 18c-6 0-10-5-10-11 0-6 4-10 10-10 6 0 11 4 11 10 0 5-5 11-11 11z m-201 6c15-47 61-52 61-52l18-38c-91-3-79 90-79 90z m210 24l5 0c45-2 70-27 70-27 36-24 73-130 73-130-13-2-67-51-67-51-33-39-51-43-51-43-73-3-133 48-133 48 0 50-34 129-34 129 28 33 109 71 109 71 9 1 19 3 28 3z m99 16c6-7 39-13 39-13l-8-26c-30 20-31 39-31 39z m49 36c49-1 82-67 82-67 30-111-76-142-76-142l-4 27c67 54-11 107-11 107 32 70-40 54-40 54 18 15 33 19 46 21 1 0 2 0 3 0z m-139 31c15-27 56-19 56-19-39-34-78-20-78-20 1 30 22 39 22 39z m-55 81l6 0c115-2 112-79 112-79-30 33-55 18-55 18-44-14-45-56-45-56-34 12-72-3-72-3-52-26-24-94-24-94l-22-18c-30 27-39 81-39 81-7 120 97 148 97 148 15 1 29 3 42 3z"/>
<glyph glyph-name="other-crown-king" unicode="&#63;" d="M110 123l309 0 0-43-309 0z m156 219c33-121 209-67 209-67l-56-125-309 0-56 128c188-51 212 64 212 64z m219 13c16 0 27-13 27-27 0-16-13-27-27-27-16 0-27 13-27 27-2 16 11 27 27 27z m-458 0c16 0 27-13 27-27 0-16-12-27-27-27-14 0-27 11-27 27 0 16 13 27 27 27z m237 77c16 0 27-13 27-27 0-16-13-27-27-27-16 0-27 12-27 27 0 14 13 27 27 27z"/>
<glyph glyph-name="other-deer" unicode="&#64;" d="M291 512c2 0 3-2 5-3 0-40-26-58-58-66l-96-3 0-22 47 0c-3-31-27-23-29-23-2-1-3-3-3-5 17-25 37-49 54-75l202 0 54-56-25-72 40-38 1-144-27 0-2 129-35 8-53-139-25 2 53 149-29 33-143 2-4-7 44-182-27 0-30 141-5 0-45-141-29 2 53 174 2 11-18 11-45 143-89 57 0 18 93 2 0 22c-18 5-36 11-45 30-2 2 1 15 11 10 85-61 104 10 109 18 1 3 11 3 14 0 3-4 3-12-14-36-2-1 0-3 1-4 36-4 87 3 85 51 0 0 5 3 8 3z"/>
<glyph glyph-name="other-dice" unicode="&#91;" d="M294 102c-9 0-20-6-28-18-12-16-10-35 1-43 11-8 29-1 40 15 11 16 10 35-1 43-4 1-7 3-10 3z m-118 22c-16 0-31-16-31-35 0-19 13-35 31-35 16 0 30 16 30 35 0 19-13 35-30 35z m213 87c-11 0-23-6-31-18-11-16-9-36 4-46 12-10 32-3 43 14 11 16 9 37-3 47-4 1-8 3-13 3z m-344 18c-16 0-31-16-31-36 0-19 13-35 31-35 17 0 30 16 30 35-2 20-14 36-30 36z m73 24c-16 0-30-16-30-36 0-19 13-35 30-35 16 0 31 16 31 35-2 20-15 36-31 36z m85 30c-16 0-30-16-30-35 0-19 12-35 30-35 16 0 30 16 30 35 0 19-12 35-30 35z m271 34c-10 0-21-7-29-18-11-16-10-35 1-43 12-8 29-2 40 14 12 16 10 35-1 43-3 2-7 4-10 4z m30 26c1 0 2 0 3-1 2 0 4-1 4-8l-57-242c0 0-1-8-8-9l-221-82c0 0-8-5-8 5l55 250c0 0 2 9 11 11l219 75c0 0 1 1 2 1z m-60 6l-2 0c0 0 1 0 1 0z m-369 40c-16 0-30-16-30-36 0-19 12-35 30-35 16 0 30 16 30 35 0 20-12 36-30 36z m-19 40c1 0 3 0 6-2l191-152c0 0 6-3 5-14-2-12-57-250-57-250 0 0-1-8-9-2-8 5-189 162-189 162 0 0-3 2 0 11l48 242c0 0 0 5 5 5z m229 1c-8 0-16-3-21-8-10-11-11-28 2-40 12-11 35-9 44 2 10 11 10 29-3 40-6 5-14 6-22 6z m8 82c1 0 6 0 13-5l190-139c0 0 11-5 2-10l-221-77c0 0-8-4-16 4l-192 155c0 0-7 3 6 6l216 64c0 2 0 2 2 2z"/>
<glyph glyph-name="other-drama" unicode="&#93;" d="M296 189c0 0 83-124 171-4 0 1-81-56-171 4z m-152 92c0 0-27-20-37-26-8-5-37-16-37-16 10-19 36-26 55-13 21 11 29 35 19 55z m302 49c-24 0-41-17-41-38 0 0 30 3 40 3 11 0 45-3 45-3-2 21-20 38-44 38z m-131 0c-24 0-41-17-41-38 0 0 30 3 40 3 11 0 44-3 44-3-1 21-20 38-43 38z m-61 107c0 0 95-14 125-14 34 0 133 14 133 14l0-228c0-72-58-130-130-130-72 0-129 58-129 130l0 200c0 3 1 25 1 28z m-30 13c0-1 3-5 5-8l0-117c-5-3-7-4-8-4-8-5-37-16-37-16 8-15 27-21 43-18l0-96-1-2c-45-25-50-92-50-92 14 30 34 51 54 64l4 1 1-3c11-30 32-58 59-75l2 0-2-2c-1-1-3-1-6-3-62-35-141-14-176 48l-98 170c-1 3-12 22-14 25 0 0 90 34 115 50 29 16 109 78 109 78z"/>
<glyph glyph-name="other-driller" unicode="&#94;" d="M58 291c-7 0-12-5-12-11l0-27c2 0 4 1 5 1l2 0c6 0 11-4 11-11l0-30c0-7-5-11-11-11l-2 0c-1 0-3 0-5 1l0-40c0-6 5-11 12-11l36 0c7 0 12 5 12 11l0 117c0 6-5 11-12 11z m-16 111l204 0c34 0 63-20 77-47l39 0c12-1 22-11 22-22l0-2 117 0c6 0 11-5 11-11 0-6-5-11-11-11l-117 0 0-7c0-11-10-20-21-20l-38 0 0-2c-15-29-43-48-77-48l-99 0 0-70c0-28-19-50-43-50-4-2-8-2-12-2l-48 0c-25 0-46 23-46 50l0 46 2 152c0 24 17 44 40 44z"/>
<glyph glyph-name="other-eighth-notes" unicode="&#95;" d="M238 431l0-27 228-46 0 27z m-46 60l320-66 0-327c0-37-50-77-128-77-79 0-128 44-104 105 17 44 141 59 187 16l0 163-229 48 0-195c0-37-49-77-128-77-78 0-128 43-104 104 18 45 141 59 187 16z"/>
<glyph glyph-name="other-election-campaign" unicode="&#96;" d="M277 237c-19 0-34-15-34-34 0-19 15-35 34-35 19 0 34 16 34 35 0 19-15 34-34 34z m0 31c36 0 65-29 65-65 0-36-29-65-65-65-36 0-65 29-65 65 0 36 29 65 65 65z m138 11c-15 0-26-12-26-27 0-14 11-26 26-26 14 0 26 12 26 26 0 15-12 27-26 27z m0 30c31 0 56-25 56-57 0-31-25-56-56-56-32 0-57 25-57 56 0 32 25 57 57 57z m-90 162c-31-11-96-34-140-35-33-1-94 14-129 23l34-101c24-7 79-21 114-18 48 4 115 29 144 40-9 27-17 64-23 91z m21 41l5-17c0 0 0-1 0-3 11-51 22-94 30-116l5-13-13-6c-4-2-100-42-167-48-31-3-74 6-104 14l81-242 2 2c20 26 56 39 92 39 16 0 30-2 43-6l4-2 1 4c11 44 51 65 90 65 55 0 89-27 89-72l0-35-31 0 0 35c0 36-36 41-58 41-29 0-59-13-62-52l-1-2 1 0c18-16 29-39 29-65l0-33-31 0 0 33c0 43-40 59-73 59-39 0-80-19-80-59l0-33-31 0 0 31-159 474 28-9c1 0 105-31 148-29 53 1 145 38 146 39z"/>
<glyph glyph-name="other-explosion" unicode="&#123;" d="M186 102l141 0c18 0 34-12 37-28l2 0c4 1 9 1 14 1 22 0 42-16 42-37 0-20-20-36-42-36-14 0-26 6-34 16l0 1-177 0-2-3c-8-10-19-16-33-16-23 0-42 16-42 37 0 21 19 37 42 37 4 0 9 0 14-2l0 2c5 16 19 28 38 28z m69 410c58 0 107-24 130-58l0-1 1 0c63-3 111-47 111-101 0-56-53-101-117-101-14 0-29 3-43 7l-2 0 0-2c-13-35-17-77-17-85 36 2 89 15 89 15-1 6-56 12-56 12l8 31c87-13 99-29 99-29 42-58-203-61-203-61-171 0-205 40-205 40-17 37 103 50 103 50l6-31-54-11c16-8 51-13 88-14l0 3c-3 30-10 58-19 78l0 2-2 0c-13-3-26-6-38-6-66 1-119 46-119 102 0 53 47 96 106 101l3 0 2 1c22 34 72 58 129 58z"/>
<glyph glyph-name="other-factory" unicode="&#124;" d="M349 114l0-56 70 0 0 56z m-129 0l0-56 70 0 0 56z m-127 0l0-56 70 0 0 56z m-63 289l32 0 5-182 64 0 0 61 126-61 1 0 0 61 126-61 2 0 0 61 126-61-2 0 0-214-510 0 0 214 26 0z m107 79c0 0 10-30-30-35 0 0-26-1-38-14 0 0-5-5-7 0 0 0 2 22 42 29 1-2 30 0 33 20z m-48 23c0 0 21-24-16-43 0 0-22-10-30-27 0 0-2-7-6-2 0 0-7 21 28 42 2-2 29 9 24 30z"/>
<glyph glyph-name="other-factory-2" unicode="&#125;" d="M64 400l0-288 384 0 0 201-112-84 0 86-128-87 0 88-96-71 0 155z m-32 32l112 0 0-123 96 71 0-92 128 87 0-82 112 84 0-265 32 0 0-32-512 0 0 32 32 0z"/>
<glyph glyph-name="other-favorites" unicode="&#126;" d="M256 494l57-182 182 0-148-112 57-182-148 112-148-112 57 182-148 112 182 0z"/>
<glyph glyph-name="other-finance" unicode="&#92;" d="M248 262l0-15c-12-2-21-6-27-14-6-8-9-17-9-26 0-8 2-14 5-20 3-5 7-9 13-12 5-4 12-7 21-10 10-3 17-6 19-9 3-2 5-5 5-10 0-4-2-8-5-11-2-3-7-5-13-5-14 0-21 7-24 22l-25-7c5-23 18-35 40-38l0-19 16 0 0 20c13 1 23 5 30 13 7 8 10 17 10 29 0 8-1 14-5 20-3 5-7 10-13 13-6 3-13 7-23 10-9 3-15 6-18 8-2 3-4 6-4 10 0 4 2 7 5 10 2 3 6 5 11 5 9 0 16-7 20-20l23 10c-5 18-17 29-36 31l0 15z m-93 250c3 0 7 0 11-1 77-19 104-69 145-32 41 36 65-20-16-111 60-31 144-118 144-236 0-28-5-50-14-67-5-10-17-29-41-43-33-18-78-22-128-22-54 0-102 5-136 27-18 12-31 33-33 38-9 17-14 39-14 67 0 116 81 202 141 234-23 32-103 145-59 146z"/>
<glyph glyph-name="other-finish" unicode="&#57344;" d="M486 512l-32-28c0 0-47-38-94-38-22 0-39 8-60 17-23 11-51 26-92 26-115 0-181-71-185-75l-7-7 111-311 0 0 31-88 41 14-38 107c18 14 55 42 92 42 32 0 51-7 68-11 17-4 35-11 60-11 51 0 94 24 96 24l11 6z m-107-322c-9 0-17 1-24 2l-17 70c-21 7-53 17-68 17l20-71c-12 2-25 3-41 3-14 0-27-3-39-7l-27 69c-22-9-44-25-59-38l-35 98c32 23 62 34 62 34l-27 66c24 10 52 17 86 17 6 0 11-1 17-1l18-69c19 0 72-26 72-26l-15 67c17-7 36-14 60-14 10 0 20 2 29 4l5-68c0 0 23 7 51 25l0-91c-24-10-45-15-45-15l5-69c-9-2-18-3-28-3z m-151 190c10 0 17 0 17 0l25-98c0 0-19 2-38 2-19 0-47-11-47-11l-36 92c0 0 36 15 79 15z m138-41c17 0 30 4 30 4l6-81c0 0-17-2-32-2-14 0-34 5-34 5l-19 87c0 0 26-13 49-13z"/>
<glyph glyph-name="other-flag" unicode="&#57345;" d="M21 469c11 0 21-10 21-21l0-403c0-11-10-21-21-21-11 0-21 10-21 21l0 403c0 11 10 21 21 21z m165 19c105 0 193-56 326-8l0-280c-178-64-274 59-443-16l0 278c43 20 80 26 117 26z"/>
<glyph glyph-name="other-flame" unicode="&#57346;" d="M217 508c107-76 181-165 181-165l40 45c202-260-74-366-74-366 44 236-114 289-114 289 0 0-3-135-19-146-151-108-91-161-91-161-227 108-124 278-65 327 8 0 33-24 33-24z"/>
<glyph glyph-name="other-flame-2" unicode="&#57347;" d="M210 491c103-15 130-163 106-235 24 27 29 66 32 100 43-43 49-109 46-161 23 27 35 60 50 91 40-39 59-105 47-150-9-30-18-53-37-80l37 0 0-35-474 0 0 36 29 0c-30 46-41 103-12 148 31 47 100 64 142 105 21 21 39 46 43 73 9 35 11 70-9 108z"/>
<glyph glyph-name="other-flower" unicode="&#57348;" d="M0 283l195-166 0-107c-153 4-195 107-195 107z m138 225l57-76 61 71 40-56c0 0 15-23 32 0l45 61c0 0 85-80 23-215 0 0-42-64-108-56l0-141 217 184c0 0 78-327-274-269l0 231-2 0c-32 1-72 6-85 19 0 0-120 72-6 247z"/>
<glyph glyph-name="other-footprint" unicode="&#57349;" d="M260 248c28 0 60-10 93-43 0 0 72-79 83-133 0 0 24-64-68-72 0 0-77 24-108 24 0 0-38-6-97-22 0 0-91-8-71 80 0 0 55 108 103 145 1 0 27 21 65 21z m202 102l3 0c5 0 11-1 16-3 31-13 39-62 18-109-21-46-63-73-93-60-30 12-38 62-18 108 16 39 47 63 74 64z m-414 4c25 0 57-21 76-56 26-45 23-93-8-111-28-16-72 7-97 51-26 45-23 93 8 111 6 3 13 5 21 5z m304 155l6 0c38-8 61-61 50-120-12-59-50-101-88-95-39 7-61 61-50 119 10 56 45 96 82 96z m-180 3c36-2 69-43 76-99 6-59-18-112-56-115-39-7-76 38-84 97-6 59 18 112 56 115 4 2 7 2 8 2z"/>
<glyph glyph-name="other-fuel-station" unicode="&#57350;" d="M102 464l0-184 193 0 0 184z m-39 48l271 0 0-158c4 1 9 3 14 3 24 0 43-23 46-51l0-180c2-14 13-25 26-25 13 0 24 11 26 25l1 60 0 139-46 59 22 29-45 53 24 27 95-111-18-19 0-235c0-38-27-69-59-69-32 0-59 31-59 69l0 160c-2 19-18 24-18 24l-11 0 0-274 46 0 0-38-363 0 0 40 48 0z"/>
<glyph glyph-name="other-ghost" unicode="&#57351;" d="M255 339c-3 0-4 0-6-1-8-7-5-24 8-40 13-16 29-24 37-20 8 7 5 24-8 40-10 13-23 21-31 21z m-60 45c-5-3-5-13 1-24 7-10 15-16 19-14 5 3 5 14-1 24-5 9-11 14-16 14z m48 29c-5-3-5-13 1-24 7-10 15-16 19-15 5 4 5 13-1 24-3 10-11 15-16 15z m115 99c14 0 46-11 78-98 0 0 15-56-9-123 0 0-11-21 0-80 0 0 11-179-79-206 0 0-69-26-77 43 0 0 95-79 93 56 0 0-8 46-57 48 0 0-184-23-220 40 0 0-49 109 26 96 0 0 14-5 10-30 0 0 6-48 81-23 0 0 18 11-6 42 0 0-83 94-27 155 0 0 48 48 91 18 0 0 16-5 43-61 0 0 15-55 45-29 0 0 46 40 3 78 0 0-66 56 0 72 0 2 2 2 5 2z"/>
<glyph glyph-name="other-gift" unicode="&#57352;" d="M286 275l186 0 0-257c0-10-8-18-18-18l-168 0z m-246 0l186 0 0-275-168 0c-10 0-18 8-18 18z m246 106l191 0c9 0 17-8 17-18l0-49c0-10-8-18-17-18l-191 0z m-52 0l43 0 0-381-43 0z m-199 0l191 0 0-87-191 0c-9 2-17 10-17 20l0 49c0 10 8 18 17 18z m221 81c27 0 48-16 48-36 0-21-21-37-48-37-27 0-48 16-48 37 0 20 21 36 48 36z m198 50c5 0 8 0 12-2 9-3 11-9 9-14-1-10-9-18-9-27 0-11 32-40 1-45-33-3-67-8-102-14-16-4-34-7-45 1 3 5 5 10 5 15 0 9-7 19-15 25 5 13 20 19 36 24 24 8 46 19 70 26 10 5 26 9 38 11z m-400 0c37 0 104-24 111-27 3-2 40-21 35-24-14-11-16-26-8-42 3-6-43-6-46-6-24 1-47-2-69 3-8 2-26 3-32 10-11 11 0 28-2 43 0 8-8 17-11 25-5 13 5 18 22 18z"/>
<glyph glyph-name="other-graduate-hat" unicode="&#57353;" d="M114 288c3 0 6-1 6-1l111-33c28-13 52-4 52-4l137 35c8 3 13-5 13-5l0-81c2-10-12-14-12-14-77-34-174-28-174-28-45 0-127 28-127 28-13 5-14 14-14 14l0 81c1 6 5 8 8 8z m-65 26c5 0 8-10 8-10l14-211c-24-38-57-1-57-1 0 0 17 196 27 214 3 6 6 8 8 8z m227 122l229-61c11-4 6-11 6-11l-235-68c-6-4-22 0-22 0l-250 67c-9 4 0 6 0 6z"/>
<glyph glyph-name="other-hand-shake" unicode="&#57354;" d="M103 215c10 0 20-8 21-18 3 11 14 18 24 16 10-1 14-9 16-19 5 11 14 18 24 14 11-3 17-17 14-33l0-3c5 6 15 11 23 8 11-3 17-16 14-29l-6-27c-4-13-16-21-28-18-9 4-15 13-15 23-5-8-15-13-21-12-10 2-16 13-16 26-5-6-13-10-21-8-8 2-13 8-16 14-1-1-5-1-8-3-11-1-21 7-22 18l-3 24c-2 11 6 22 16 24 3 3 3 3 4 3z m8 151l21 0c0 0-35-35 3-65 0 0 19-18 48 0l53 29 32-16 148-106c0 0 13-9 10-22 0 0-7-14-19-14l-71 48c-3 1-6 1-8 0-1-2 0-7 2-8l56-40c1-3 1-10-3-16 0 0-7-8-15-8l-70 49c-3 2-6 2-8 0-2-1 0-6 2-8l54-40c2-3 3-8 0-14 0 0-6-11-18-10l-49 36c-3 1-6 1-8-2-2-2-2-6 2-8l31-22c0-2 2-7-1-13 0 0-7-11-19-10l-34 24c0 0 26 61-29 67 0 0-11 40-51 23 0 0-19 17-41 3 0 0-29 24-53-11l-6 1c3 3 6 91 41 153z m372 5c0 0 11 0 13-14l16-120c0 0 2-13-11-14l-23 0c0 0 0 89-38 135z m-424 15c1 0 4 0 6-2l22-13c0 0-41-84-41-159l-38 6c0 0-12 5-7 21l43 135c0 0 5 12 15 12z m178 20c4 0 7-1 10-3l81-35 48-21 47 7c43-50 35-128 35-128l-26-6-148 110-45 19-67-38c-11-7-26 0-32 12-8 13-5 29 5 35l83 47c3 1 6 1 9 1z"/>
<glyph glyph-name="other-happy" unicode="&#57355;" d="M424 250c-3-90-77-163-168-163-89 0-161 69-167 156 48-23 102-36 160-36 64 0 123 16 175 43z m-93 136c20 0 36-19 36-42 0-24-16-43-36-43-20 0-36 19-36 43 0 23 16 42 36 42z m-152 0c20 0 36-19 36-42 0-24-16-43-36-43-20 0-37 19-37 43 0 23 17 42 37 42z m77 85c-119 0-215-96-215-215 0-119 96-215 215-215 119 0 215 96 215 215 0 119-96 215-215 215z m0 41c141 0 256-115 256-256 0-141-115-256-256-256-141 0-256 115-256 256 0 141 115 256 256 256z"/>
<glyph glyph-name="other-home-loan" unicode="&#57356;" d="M89 229c-8 0-15-7-15-15l0-92c0-8 7-15 15-15l78 0c9 0 15 7 15 15l0 92c0 8-6 15-15 15z m266 193l0-30c-32-6-50-27-50-53 0-29 21-44 53-56 24-8 34-17 34-31 0-15-13-24-33-24-18 0-36 6-48 13l-8-29c11-7 30-13 50-13l0-30 26 0 0 32c33 5 52 28 52 54 0 28-16 45-50 58-27 10-38 18-38 30 0 11 8 22 29 22 21 0 35-7 43-11l8 29c-10 5-23 10-43 10l0 29z m12 18c80 0 145-65 145-145 0-80-65-145-145-145-81 0-146 65-146 145 0 80 65 145 146 145z m-159 17c5 0 10-2 14-5l34-34c-34-30-55-74-55-123 0-91 74-165 166-165 9 0 18 1 27 2l0-57c0-11-9-20-21-20l-331 0c-11 0-20 9-20 20l0 154c-10 1-15 5-18 8l0 0c-3 5-8 16 2 27l188 188c3 3 9 5 14 5z"/>
<glyph glyph-name="other-house" unicode="&#57357;" d="M142 251l0-64 64 0 0 64z m-100 2l0-64 64 0 0 64z m240 43l230 0 0-294-66 0 0 148-92 0 0-148-72 0z m-140 58l0-64 64 0 0 64z m-100 1l0-64 64 0 0 64z m240 2l230 0 0-31-230 0z m-140 99l0-64 64 0 0 64z m-100 2l0-64 64 0 0 64z m-42 52l248 0 0-508-248 0z"/>
<glyph glyph-name="other-house-2" unicode="&#57358;" d="M256 382l177-157 0-204c0-8-5-13-10-14-5-3-10-3-14-3l-95 0c-3 0-6 1-8 3-2 1-3 5-3 8l0 98-95 0 0-98c0-3-1-7-3-8-2-2-5-3-8-3l-95 0c-4 0-9 1-14 3-3 1-8 6-8 14l0 202z m0 126c8 0 16-3 23-8l223-200c12-13 14-32 1-46-13-13-34-15-46-2l-201 180-200-178c-6-7-15-8-23-8-9 0-17 3-24 11-12 11-12 32 2 43l223 200c6 5 14 8 22 8z"/>
<glyph glyph-name="other-jesus-christ" unicode="&#57359;" d="M219 235c40-13 77-40 77-40l-4-91 7 0 0-11 8 0 0-7 7 0 0-69-122 0 0 69 7 0 0 7 8 0 0 11 12 0z m115 184c20-11 98-14 98-14 14-4 12-9 12-9-1-4-30 0-30 0l-15 0c-10-19-18-21-18-21-6-4-16-1-16-1l-15 1c-19-11-42-14-48-14l3-138c-1-27-7-22-7-22-5 9-62 33-62 33-28 9-31 32-31 32l3 93-1 0-41 10c-13 6-21 5-21 5-21-10-33 22-33 22l-43 0c-4 2 5 9 5 9l55 3c46-41 112-36 112-36 60 11 93 47 93 47z m-41 9l38-5c-38-33-71-39-71-39-82-17-124 26-124 26 14 0 39 7 39 7 57-40 118 11 118 11z m-40 67c12 0 21-9 21-21l4-48 11 0c0 0-59-40-108-6 0 0 27 8 46 5l5 49c0 12 9 21 21 21z"/>
<glyph glyph-name="other-jesus-christ-2" unicode="&#57360;" d="M224 480l0-112-144 0 0-64 144 0 0-272 64 0 0 272 144 0 0 64-144 0 0 112z m-32 32l128 0 0-112 144 0 0-128-144 0 0-272-128 0 0 272-144 0 0 128 144 0z"/>
<glyph glyph-name="other-library-books" unicode="&#57361;" d="M156 56l0-22 102 0 0 22z m-134 0l0-22 77 0 0 22z m464 16l-112-19 4-22 112 19z m-57 338l-112-19 4-22 112 19z m-407 20l0-22 77 0 0 22z m417 4l66-412-138-22-66 412z m-432 36l107 0 0-470-107 0z m149 2l0-22 102 0 0 22z m-13 40l128 0 0-512-128 0z"/>
<glyph glyph-name="other-love" unicode="&#57362;" d="M137 499c48 0 94-27 119-72 34 63 111 90 176 59 69-32 99-115 68-186-32-70-244-287-244-287-1 1-212 217-244 287-31 71-1 154 68 186 18 9 38 13 57 13z"/>
<glyph glyph-name="other-meda" unicode="&#57363;" d="M256 227l18-56 57 0-46-33 17-56-46 33-46-33 17 56-46 33 57 0z m0 15c-53 0-96-44-96-96 0-53 43-96 96-96 53 0 96 43 96 96 0 52-43 96-96 96z m0 49c80 0 146-65 146-145 0-80-66-146-146-146-80 0-146 66-146 146 0 80 66 145 146 145z m134 219l69-83-96-141c-27 21-61 36-96 37z m-241 2l214 0-65-99-85 0z m-27 0l123-187c-37-2-71-16-98-37l-94 141z"/>
<glyph glyph-name="other-medal" unicode="&#57364;" d="M251 160l-6-13-15-2 11-12-2-15 12 7 12-7-2 15 11 12-15 2z m0 70l26-56 55-9-40-42 10-60-51 29-51-29 10 60-40 42 55 9z m0 33c-65 0-117-52-117-117 0-64 52-117 117-117 64 0 117 53 117 117 0 65-53 117-117 117z m-89 132l46-109 3 1c13 4 26 6 40 6 19 0 37-4 54-11l2-1 48 114z m258 79l-87-207 5-4c15-11 28-25 38-41l3-5 81 191z m-324 1l-44-67 77-181 1 1c12 17 27 32 45 43l6 4z m28 8l25-59 218 0 25 59z m294 29l1 0 7 0 0-1 1-1c4-1 8-4 10-8l50-82c4-6 4-13 2-19l-95-223 0-2c2-10 3-20 3-30 0-80-65-146-146-146-81 0-146 66-146 146 0 15 2 30 6 44l1 3-88 207c-3 7-3 15 1 21l54 81c2 4 6 7 10 8l1 1 0 1 328 0z"/>
<glyph glyph-name="other-medal-3" unicode="&#57365;" d="M72 51l71 28c4 2 9 0 11-5l26-71c2-4 5-4 7 0l69 157 70-157c1-4 4-4 6 0l26 71c2 5 7 7 12 5l70-28c5-2 7 0 5 5l-68 153c-32-29-74-46-119-46-1 0-1 0-2 0 0 0-1 0-1 0-46 0-88 17-120 46l-67-153c-2-5 0-7 4-5z m70 172c28-27 65-43 106-45 3 0 5-1 8-1 3 0 5 1 8 1 41 2 79 18 107 45 32 30 52 74 52 122 0 92-74 167-167 167-92 0-167-75-167-167 0-48 20-92 53-122z m114 259c76 0 137-62 137-137 0-36-13-68-36-92-20-23-48-38-79-43-7-2-14-2-22-2-7 0-15 0-22 2-31 5-59 20-79 43-22 24-36 56-36 92 0 75 62 137 137 137z m-29-256c9-2 19-4 29-4 10 0 20 2 30 4 26 6 48 21 65 41 17 21 27 48 27 78 0 67-54 122-122 122-67 0-122-55-122-122 0-30 10-57 27-78 17-20 40-35 66-41z m-8 189l39 20c0 1 1 1 1 1l21 0c1 0 3-2 3-3l0-176c0-2-2-3-3-3l-23 0c-2 0-3 1-3 3l0 149-27-15c-1 0-2 0-3 0-1 1-1 1-1 2l-5 18c0 2 0 3 1 4z"/>
<glyph glyph-name="other-messages-information" unicode="&#57366;" d="M390 348c67 0 122-55 122-122 0-44-23-82-57-103l24-69-68 52c-7-1-14-2-21-2-67 0-122 55-122 122 0 67 55 122 122 122z m-390 110l390 0 0-70c-89 0-162-72-162-162 0-18 3-36 8-52l1-4-103 0-66-99 0 99-68 0z"/>
<glyph glyph-name="other-money" unicode="&#57367;" d="M370 512c55 0 101-9 139-27l-18-63c-36 23-77 34-123 34-50 0-92-9-126-27-20-11-39-27-55-46-17-21-26-40-29-59l304 0-12-45-300 0c0-5 0-9 0-14 0-17 0-27 0-31l288 0-13-45-265 0c12-51 42-88 90-110 34-15 71-23 111-23 56 0 99 11 130 33l0-69c-37-13-78-20-123-20-134 0-225 42-272 127-10 17-18 38-25 62l-68 0 12 45 47 0c-1 10-1 20-1 31 0 5 0 9 0 14l-58 0 12 45 52 0c18 74 67 126 144 158 48 20 101 30 159 30z"/>
<glyph glyph-name="other-money-2" unicode="&#57368;" d="M282 211l0-85c35 4 52 18 52 40 0 19-17 33-52 45z m-53 183c-34-4-51-18-51-40 0-19 17-35 51-48z m0 118l53 0 0-51c52-2 90-8 115-19l0-76c-34 16-72 26-115 30l0-107c54-14 92-31 115-50 23-19 35-42 35-69 0-31-13-56-39-75-26-19-63-30-111-34l0-61-53 0 0 59c-50 0-96 9-139 26l0 77c14-8 35-17 63-24 28-8 54-12 76-13l0 102c-58 16-97 34-118 53-20 19-31 42-31 69 0 29 14 54 41 75 27 21 63 33 108 36z"/>
<glyph glyph-name="other-money-bag" unicode="&#57369;" d="M287 249c-30 0-55-7-74-22-13-9-21-21-25-35l-18 0-5-17 20 0c0-3 0-6 0-9 0-2 0-4 0-5l-15 0-5-17 23 0c4-15 12-27 25-37 19-14 43-21 72-21 17 0 32 2 45 7l0 33c-11-9-27-13-46-13-16 0-29 4-39 13-5 4-9 10-11 18l68 0 5 17-76 0c-1 2-1 5-1 8 0 2 0 4 0 6l81 0 5 17-83 0c3 7 7 13 13 17 10 9 23 13 39 13 16 0 29-3 37-9l9 30c-12 4-27 6-44 6z m-64 263c0 0 60 0 67-1 0 0 55-1 48-43 0 0-14-54-67-76l-4 0c1 0 32-1 28-12 0 0-4-7-17-13l18 1c0 0 189-38 213-277 0 0 0-82-160-91 0 0-179 0-201 4 0 0-165 3-143 129 0 0 40 161 201 229l18 1c-10 3-22 9-25 21 0 0 0 7 31 8l3 0c-17 6-57 27-63 90 0 0 0 27 53 30z"/>
<glyph glyph-name="other-money-gold" unicode="&#57370;" d="M266 190c7-3 13-6 16-10 4-4 5-8 5-14 0-6-2-11-6-16-4-4-9-7-15-8z m-19 82l0-42c-6 2-10 5-13 9-2 3-4 8-4 12 0 5 2 9 5 13 3 4 7 7 12 8z m0 39l0-12c-15-2-27-7-36-16-8-9-13-20-13-34 0-13 4-24 12-33 8-10 20-17 37-21l0-51c-5 2-9 5-13 10-3 5-6 10-7 17l-34-4c3-16 8-28 18-37 9-9 21-14 36-16l0-22 19 0 0 23c16 2 29 8 39 18 9 10 14 23 14 38 0 13-4 24-11 32-8 9-22 16-42 21l0 48c8-4 13-10 15-20l33 4c-3 12-8 22-16 30-8 7-19 11-32 13l0 12z m9 21c68 0 125-53 130-120 0-7 0-14 0-21-5-64-56-114-120-119-7-1-14-1-21 0-65 5-117 58-120 125 0 3 0 6 0 10 3 69 60 125 131 125z m0 27c-2 0-3 0-5-1-81-2-147-66-152-146 0-7 0-14 0-20 5-82 74-147 157-147 85 0 154 67 157 152 0 3 0 6 0 10-3 82-69 149-152 151-2 1-3 1-5 1z m-57 117c-7 0-14-6-14-14l0-52c0-5 4-9 9-9l124 0c5 0 9 4 9 9l0 52c0 8-7 14-14 14z m-22 35l158 0c16 0 28-12 28-27l0-74c0-5 4-9 9-9l80 0c16 0 29-11 31-26l29-347c2-14-10-27-25-27l-462 0c-15 0-27 13-25 27l29 347c2 15 15 26 31 26l80 0c5 0 9 4 9 9l0 74c0 15 12 27 28 27z"/>
<glyph glyph-name="other-money-gold-1" unicode="&#57371;" d="M245 290l22 0 0-20c13-1 25-6 34-16 6-7 10-15 13-25-10-4-20-8-30-12-2 5-4 9-6 13-6 9-15 14-26 12-8-2-14-8-15-16-1-8 1-15 9-18 10-5 21-9 32-13 5-3 10-5 15-8 19-10 28-27 26-48-2-29-20-47-49-51-1 0-2 0-3-1l0-25-22 0 0 25c-30 4-47 23-52 50 5 1 11 3 16 4 6 2 11 3 17 4 1-2 1-5 2-8 6-17 25-25 42-17 7 3 10 9 11 17 0 8-3 14-10 17-8 3-16 6-24 10-7 3-14 5-21 9-20 10-29 29-27 50 1 8 3 15 7 22 7 14 19 21 35 25 1 0 2 0 4 0z m-5 54c-54-41-108-121-124-186-8-32-4-59 12-80 22-29 72-46 133-46 49 0 95 19 119 48 18 22 24 49 18 79-17 79-85 161-128 185z m16 111l-15-22c-3-5-8-8-14-9-6-1-11 1-16 4-2 2-5 4-10 7 0 0 0 0 0-1l24-58 6 0 0 0 12 0 13 0 0 0 0 0 0 0 31 0 24 58c0 1 0 1 0 1-5-3-8-5-10-7-5-3-10-5-16-4-5 1-11 4-14 9z m0 57l35-52c1 1 3 2 4 3 14 9 25 7 31 3 16-8 17-30 17-34l0-3-30-76 1-1c49-41 100-115 115-186 8-40 0-77-24-106-31-38-85-60-144-60-34 0-117 6-158 59-23 28-29 64-18 107 16 62 60 133 110 181l5 5-31 77 0 3c0 4 1 26 17 34 6 4 17 6 31-3 1-1 3-2 4-3z"/>
<glyph glyph-name="other-nuclear" unicode="&#57372;" d="M275 160l-6 0c-4 0-9 0-13 0-4 0-8 0-12 0l-7 0 2-2c4-6 8-12 13-18l4-5 1 0c5 7 11 15 16 23z m-131 9l-2-5c-19-62-18-105-3-114 4-2 9-3 16-1 19 5 48 25 80 61l0 0-2 2c-12 15-23 30-34 47l-2 3-12 1c-12 2-25 3-37 5z m224 0l-7-1c-13-2-25-4-38-5l-8-1-2-3c-11-17-23-33-34-47l-2-2 0-1c32-35 61-55 80-60 7-2 12-1 16 1 15 9 16 52-3 114z m-205 50l0 0c-3-5-5-11-7-16l-1-3 3-1c5-1 10-1 16-2l1 0-4 7c-2 4-4 8-7 12z m186 0l-2-4c-2-4-4-7-6-11l-4-7 0 0c6 1 11 1 17 2l3 1-1 3c-2 5-4 11-7 16z m-93 69c18 0 32-14 32-32 0-18-14-32-32-32-18 0-32 14-32 32 0 18 14 32 32 32z m133 18l-1-2c-5-15-12-30-19-45l-1-3 5-10c5-13 11-25 15-38l1-2 2 0c57 14 89 34 89 50 0 16-33 36-89 50z m-266 0l-2 0c-57-14-89-34-89-50 0-16 33-36 89-50l2 0 1 2c5 15 12 30 19 45l1 3-5 10c-5 13-11 25-15 38z m214 9l4-7c2-4 4-8 7-12l1-3 0 0c3 5 5 11 7 16l1 3-3 1c-5 1-10 1-16 2z m-162 0l0 0c-6 0-11-1-17-2l-3-1 1-3c2-5 4-11 7-16l0 0 2 4c2 4 4 7 6 11z m81 5c-14 0-27 0-39-1l-2 0-5-8c-3-6-7-12-11-19-7-12-13-23-19-35l0-1 0-1c6-12 12-23 19-35 4-7 8-13 11-19l5-8 4 0c12-1 24-1 37-1 14 0 27 0 39 1l2 0 5 8c3 6 7 12 11 19 7 12 13 23 19 35l0 1 0 1c-6 12-12 23-19 35-4 7-8 13-11 19l-5 8-4 0c-12 1-24 1-37 1z m0 57l-1 0c-5-7-11-15-16-23l-2-2 6 0c4 0 9 0 13 0 4 0 8 0 12 0l7 0-2 2c-4 6-8 12-13 18z m-109 87c-3 0-6-1-8-2-15-9-16-52 3-114l2-5 7 1c13 2 25 4 38 5l8 1 2 3c11 17 23 33 34 47l2 2 0 1c-32 35-61 55-80 60-3 1-5 1-8 1z m218 0c-3 0-5 0-8-1-19-5-48-25-80-61l0 0 2-2c12-15 23-30 34-47l2-3 12-1c12-2 25-3 37-5l4-1 2 5c19 62 18 105 3 114-2 1-5 2-8 2z m1 32c10 0 18-3 24-7 33-21 32-79 11-148l-1-4 6-2c62-16 106-42 106-79 0-37-45-64-109-80l-3-1 1-4c21-69 22-127-11-148-6-4-14-7-25-7-5 0-10 1-16 2-27 7-59 30-92 66l-1 1-1 0c-33-36-65-60-92-67-6-1-11-2-16-2-11 0-19 3-25 7-33 21-32 79-11 148l1 4-6 2c-62 16-106 42-106 79 0 37 45 64 109 80l3 1-1 4c-21 69-22 127 11 148 6 4 14 7 25 7 4 0 10-1 16-2 27-7 59-30 92-66l1-1 1 1c33 35 65 59 92 66 6 1 12 2 17 2z"/>
<glyph glyph-name="other-olympic-logo" unicode="&#57373;" d="M371 275l0-1c5-16 16-29 30-36l1-1 0 1c-5 16-16 29-30 36z m-174 0l0-1c5-16 16-29 30-36l1-1 0 1c-5 16-16 29-30 36z m-56 0l-1-1c-14-7-25-20-30-36l0-1 1 1c14 7 25 20 30 36z m174 0l-1-1c-14-7-25-20-30-36l0-1 1 1c14 7 25 20 30 36z m28 7c-1 0-2 0-3 0l-3-1 0-2c-5-29-25-54-53-64l-2-1 0 0c3-31 29-55 61-55 32 0 58 24 61 55l0 0-2 1c-28 10-48 35-53 64l0 2-3 1c-1 0-2 0-3 0z m-174 0c-1 0-2 0-3 0l-3-1 0-2c-5-29-25-54-53-64l-2-1 0 0c3-31 29-55 61-55 32 0 58 24 61 55l0 0-2 1c-28 10-48 35-53 64l0 2-3 1c-1 0-2 0-3 0z m261 71c-32 0-58-24-61-55l0 0 2-1c28-10 48-35 53-64l0-2 3-1c1 0 2 0 3 0 34 0 62 28 62 62 0 34-28 61-62 61z m-174 0c-32 0-58-24-61-55l0 0 2-1c28-10 48-35 53-64l0-2 3-1c1 0 2 0 3 0 1 0 2 0 3 0l3 1 0 2c5 29 25 54 53 64l2 1 0 0c-3 31-29 55-61 55z m-174 0c-34 0-62-27-62-61 0-34 28-62 62-62 1 0 2 0 3 0l3 1 0 2c5 29 25 54 53 64l2 1 0 0c-3 31-29 55-61 55z m0 21c41 0 75-30 81-70l0-2 2 0c1 0 3 0 4 0 1 0 3 0 4 0l2 0 0 2c6 40 40 70 81 70 41 0 75-30 81-70l0-2 2 0c1 0 3 0 4 0 1 0 3 0 4 0l2 0 0 2c6 40 40 70 81 70 45 0 82-37 82-82 0-45-37-82-82-82-1 0-3 0-4 0l-2 0 0-2c-6-40-40-70-81-70-41 0-75 30-81 70l0 2-2 0c-1 0-3 0-4 0-1 0-3 0-4 0l-2 0 0-2c-6-40-40-70-81-70-41 0-75 30-81 70l0 2-2 0c-1 0-3 0-4 0-45 0-82 37-82 82 0 45 37 82 82 82z"/>
<glyph glyph-name="other-palm-tree" unicode="&#57374;" d="M253 341l30-16c8-311 195-325 195-325l-174 0c-103 82-75 328-75 328z m117 171c70 0 115-60 110-139-34 80-135 89-176 46 101 11 240-57 141-259-20 154-140 202-191 208-72-5-168-85-173-208-153 200 93 272 152 250-12 32-97 59-184-15 31 207 207 74 207 74 40 30 78 43 110 43 1 0 2 0 4 0z"/>
<glyph glyph-name="other-paper-plane" unicode="&#57375;" d="M512 428l-160-269-182 48 4-25 64-21-64-77-35 136 242 149-288-115-93 67z"/>
<glyph glyph-name="other-pirate" unicode="&#57376;" d="M206 117c12 0 24-5 36-20-25-16-55-20-91-40-28-15-59-52-93-43-17 4-10 15-20 26-13 14-37 13-34 34 6 34 80 14 121 20 30 4 57 23 81 23z m76 125c3 0 5-4 5-9 0-5-2-9-5-9-3 0-6 4-6 9 0 5 3 9 6 9z m-31 1c3 0 5-4 5-9 0-6-2-10-5-10-3 0-5 4-5 10 0 5 2 9 5 9z m-15 0c3 0 5-4 5-10 0-6-2-10-5-10-3 0-5 4-5 10 0 6 2 10 5 10z m212 22c2 0 5 0 7-1 16-27 65-36 50-83-70-9-132-26-183-54-21 6-33 21-54 27 34 25 81 35 121 63 20 15 34 48 59 48z m-377 10c30 0 44-44 70-64 25-20 72-37 114-60 72-40 96-59 190-71 3 0 57-2 50-33-3-16-7-4-26-17-17-11-21-28-34-30-32-4-58 39-77 50-34 22-89 45-140 71-50 26-100 52-144 63-27 7-64 3-70 27-6 25 37 49 54 60 2 2 2 2 6 3 3 1 5 1 7 1z m172 1c3 0 5-5 5-10 0-6-2-10-5-10-3 0-6 4-6 10 0 5 3 10 6 10z m15 1c3 0 5-5 5-11 0-6-2-10-5-10-3 0-5 4-5 10 0 6 2 11 5 11z m-32 0c3 0 6-5 6-11 0-6-3-10-6-10-3 0-5 4-5 10 0 6 2 11 5 11z m46 1c3 0 5-4 5-10 0-5-2-10-5-10-3 0-6 5-6 10 0 6 3 10 6 10z m16 2c3 0 5-5 5-11 0-6-2-11-5-11-3 0-5 5-5 11 0 6 2 11 5 11z m-103 11c32-7 15-62 47-70 11 1 21 0 29 0l2 0 0 1c-1 1-2 4-2 7 0 5 3 10 5 10 3 0 6-5 6-10 0-3-1-6-2-7l0-1 3 0c8 1 15 3 22 10 15 15 0 57 33 57 28-128-174-128-143 3z m70 67c-2-15-21-31-10-47 4 9 15 6 23 3 0 19-1 36-13 44z m42 46c-12 0-23-7-25-23-4-24 32-53 56-30 8 34-12 52-31 53z m-76 0c-19 0-42-19-33-53 25-24 63 8 57 33-3 14-13 20-24 20z m37 108c64 0 126-40 107-124-8-11-10-28-23-34 2-11 21-5 20-20-15-25-55-25-67-53-30 0-53-6-80 0-7 28-43 27-60 43-3 17 4 22 6 34 0 11-11 12-13 23-22 86 44 131 110 131z"/>
<glyph glyph-name="other-polling-box" unicode="&#57377;" d="M480 289l-160-83 0-160 160 82z m-447 14l0-160 254-100 0 160z m189 73c1 0 2 0 3-1l80-34c4-1 5-6 4-10-2-3-5-5-8-5-1 0-2 0-3 1l-79 34c-4 1-6 6-4 10 1 3 4 5 7 5z m-35 18l-135-61 250-99 162 82-127 50 0-78 7-2c5-2 7-7 4-11-1-3-5-5-8-5-1 0-3 0-4 1l-167 70c-5 2-7 7-5 11 3 4 8 6 13 4l10-4z m35 21c1 0 2 0 3 0l80-34c4-2 5-7 4-11-2-3-5-5-8-5-1 0-2 0-3 1l-79 34c-4 2-6 6-4 10 1 3 4 5 7 5z m0 42c1 0 2 0 3-1l80-34c4-2 5-6 4-10-2-4-5-5-8-5-1 0-2 0-3 0l-79 34c-4 2-6 7-4 11 1 3 4 5 7 5z m-17 29l0-142 113-48 0 144z m-18 26l150-61 0-55 175-70 0-217-210-109-302 122 0 216 187 83z"/>
<glyph glyph-name="other-polling-box-2" unicode="&#57378;" d="M221 177l-21-44-48-7 35-33-9-48 43 22 43-22-8 48 35 33-48 7z m-154 33l309 0 0-210-309 0z m90 100l25 0 0-1 82 0 0 1 25 0 0-1 102 0 0-66-339 0 0 66 105 0z m179 202c5 0 10-1 15-3l109-23 0-79c0 0-52-47-129-10 0 0-4-1-9-3l-1 0 17-17c5-4 5-12 1-17l-28-28-25 0 36 36-19 19-2 0c-21-8-46-17-54-19l0 0-2-1c-3-2-8-4-13-4-13 0-23 10-23 23 0 8 4 15 10 19l2 0c0 1 0 1 0 1l2 1 0 0 0 0 42 18-41 40-98-101 33-32-25 0-24 24c-5 4-5 12 0 17l105 108c5 5 13 5 18 0l49-48 32 14c0 0 6 4 3 11 0 0-4 6-11 4l-25-12-27 26 51 29c0 0 15 7 31 7z"/>
<glyph glyph-name="other-rabbit" unicode="&#57379;" d="M386 371c-7 0-13-5-13-12 0-7 5-13 13-13 6 0 13 5 13 13-2 7-7 12-13 12z m-106 127c8 0 37-7 85-92 0 0 93 2 107-108 0 0 2-7-1-16l-29 9 24-20c-7-12-21-23-47-29 0 0 23-119-51-170l-1-51 0-1c0-10-10-18-21-18-11 0-21 8-21 18l0 40c0 0 0 9-13 11l-56-3c0 0 21-8 24-26l0-42-110 0c0 0-54-6-80 36 0 0-22-15-34 11 0 0-33 14-6 46 0 0 8 30 38 14 0 0 18 149 221 191 0 0-8 33 5 64 0 0-82 89-35 134-2 0 0 2 1 2z m83 14c29 0 36-94 36-94l-24 3c-2 11-37 57-37 57 8 24 21 32 21 32 1 2 3 2 4 2z"/>
<glyph glyph-name="other-rain-2" unicode="&#57380;" d="M229 414l51 0 0-14c107-8 197-75 232-142l0-16-10 0-11 16-115 0 0-16-51 0 0 16-47 0 0-111c0-27-32-49-72-49-40 0-72 22-72 49l0 21 52 0 0-21c0-8 9-14 22-14 13 0 22 6 22 14l0 111-48 0 0-16-52 0 0 16-109 0-11-16-10 0 0 16c35 65 123 131 229 142z"/>
<glyph glyph-name="other-reminder" unicode="&#57381;" d="M255 184c-113 0-206-24-206-54 0-28 77-52 177-55l0 47c0 17 16 32 36 32 19 0 35-15 35-32l0-47c93 5 163 27 163 55 2 30-91 54-205 54z m-43 328l94 0 0-56c64-14 109-53 109-101 0 0-8-46 0-61 31-57 96-108 96-145 0-58-93-87-213-91l0-26c0-18-16-32-35-32-19 0-35 14-35 32l0 26c-128 3-227 32-227 91 0 37 64 88 96 145 8 15 0 61 0 61 0 48 49 90 115 103z"/>
<glyph glyph-name="other-rocket" unicode="&#57382;" d="M474 512c14 0 26-2 30-8 24-24-19-131-19-131l-168-170 29-112-93-91-37 134-212-129 128 216-132 33 95 95 105-29 170 170c0 0 62 22 104 22z"/>
<glyph glyph-name="other-rural" unicode="&#57383;" d="M372 200l-47-42c8-2 14-9 14-17l0-45c0 0 0-1 0-1l0 0c0 0 1 0 2 0l0 0 1 0 3-1 1 0 11 0 0 20c0 9 7 16 16 16 9 0 16-7 16-16l0-22 17-1 0 50c0 8 6 15 14 17z m-94 125l-2-3c-93-158-60-221-57-225l0 0 0 0c12 0 23 0 36 0 1 0 3 0 6 0 6 1 12 1 18 1 8 0 15 0 22-1l6 0 0 29-31 0-5 11c-3 7-1 14 4 19l86 77c1 1 2 2 4 3l1 0-2 4c-16 27-43 60-83 83z m-127 183c1 0 1 0 2 0 22-5 75-21 114-78 10 18 34 42 90 55l6 2 3-6c3-6 0-8-9-18-9-10-26-27-36-44 19 13 50 29 84 22 25-5 47-22 66-52 2-3 2-8-1-12-2-3-6-4-10-3-16 5-71 17-121-6 24-19 81-74 68-153l-1-2 72-64-4-12c-3-7-9-11-16-11l-20 0 0-50 6-2c26-10 46-20 61-31 7-5 9-15 4-22-5-7-15-9-22-4-26 18-70 38-143 45l0 0-1 1c-2 0-4 0-6 0l-1 0-1 0c-22 2-46 3-73 2-5 0-7 0-9 0 0 0-1 0-1 0-199 0-219-42-220-45 0-9-7-15-15-16 0 0-1 0-1 0-8 0-15 6-16 15 0 3 0 15 12 28 25 26 80 42 165 48l8 0-1 2c-10 31-15 100 54 224l4 6 0 0c-34-8-114-31-153-91-2-3-6-5-10-4-4 0-7 4-8 8-1 10-11 95 89 134-26 4-65 8-109 2l-5-2-8 9 4 6c11 16 61 56 158 35-11 16-31 42-56 66-3 4-4 9-2 13 2 3 5 5 9 5z"/>
<glyph glyph-name="other-sale" unicode="&#57384;" d="M241 246l0-6c0-6-2-11-5-14-3-4-8-7-13-7-3 0-6 2-9 3-2 2-4 5-4 8 0 8 5 12 15 13z m144 32c11 0 16-6 16-20l-34 0c0 6 3 11 6 14 4 5 7 6 12 6z m0 20c-13 0-24-5-34-13-10-10-13-21-13-37 0-14 5-27 13-35 8-8 21-13 35-13 15 0 26 2 34 6l0 21c-8-5-18-8-27-8-16 0-24 7-26 21l61 0 0 13c0 14-3 25-11 33-8 8-18 12-32 12z m-157 0c-6 0-13 0-19-2-7-2-13-3-16-5l0-22c9 6 21 9 32 9 11 0 16-4 16-16l-26-3c-21-3-32-13-32-32 0-8 4-16 8-21 5-4 13-8 21-8 13 0 21 5 27 16l0-12 27 0 0 56c2 27-11 40-38 40z m-94 38c-7 0-13 0-19-2-7-1-12-3-16-6-5-3-8-6-12-13-3-5-4-11-4-17 0-8 3-16 8-23 4-6 12-11 22-16 5-1 8-3 11-5 3-1 7-3 10-4 3-2 5-4 6-5 2-2 2-5 2-7 0-1 0-3-2-4-1-2-1-4-5-5-1-2-4-2-6-3-3 0-6-2-10-2-6 0-12 2-19 3-6 2-11 5-17 10l0-29c4-3 9-5 16-5 6-1 12-1 20-1 7 0 15 0 20 1 6 2 11 3 16 7 4 3 8 6 11 12 3 5 5 12 5 18 0 5 0 10-2 14-2 4-3 8-6 12-4 3-7 6-12 8-4 3-9 4-14 6-3 2-8 3-10 5-3 1-6 3-8 5l-4 4c-2 2-2 4-2 7 0 1 0 3 2 5 1 1 3 3 4 4 2 2 5 2 7 4 3 0 6 1 9 1l8 0c4 0 5-1 8-1 4 0 5-2 8-4 4-1 5-3 7-4l0 27c-5 1-10 3-15 3-4-2-11 0-17 0z m156 5l0-138 29 0 0 138z m23 169c5 0 9-2 12-6l34-45 56-2c8 0 14-6 16-12l10-56 49-29c6-3 10-11 8-19l-19-55 30-48c5-6 3-14-3-20l-40-39 5-56c0-8-5-14-11-17l-55-16-22-51c-3-7-11-11-18-10l-55 11-44-35c-3-3-6-3-9-3-3 0-8 2-10 3l-43 35-57-9c-8-2-15 3-18 9l-22 51-55 16c-8 2-12 10-11 18l5 56-40 38c-6 5-8 13-3 19l29 48-18 53c-3 8 0 16 8 19l49 29 8 56c2 8 8 13 16 13l56 1 34 45c5 6 13 8 19 5l51-23 51 24c2 2 5 2 7 2z"/>
<glyph glyph-name="other-scale" unicode="&#57385;" d="M356 128c4-11 11-25 24-35 24-18 56-17 78 2 9 8 16 19 19 33z m-320 48c4-11 11-25 24-35 24-18 57-17 78 2 10 8 16 19 20 33z m380 129l-43-145 86 0z m-319 48l-43-145 85 0z m159 159c9 0 16-7 16-16l0-91 185-39c9-2 14-10 13-19-2-7-9-13-16-13-1 0-2 0-3 1l-11 2 52-177 9 0 6-6c4-4 5-9 5-14-3-29-14-52-33-69-17-15-39-23-61-23-20 0-40 7-58 20-32 24-38 61-40 72l0 0 0 7 10 12 8 1 2 0 55 186-123 26 0-340 64 0c9 0 16-7 16-16 0-9-7-16-16-16l-160 0c-8 0-15 7-15 16 0 9 7 16 15 16l64 0 0 347-125 26 58-197 9 0 6-6c3-4 5-9 4-14-2-29-14-52-33-69-17-15-38-23-60-23-20 0-41 7-58 20-32 24-39 61-40 72l0 0-1 7 10 12 9 1 2 0 59 201c0 1 0 2 1 2l0 1-20 4c-8 2-14 11-12 19 2 8 8 13 16 13 1 0 2 0 3 0l172-37 0 85c0 9 8 16 16 16z"/>
<glyph glyph-name="other-school" unicode="&#57386;" d="M0 58l512 0 0-13-512 0z m12 35l487 0 0-13-487 0z m349 214c-16 0-29-13-29-29l0-152 59 0 0 152c0 16-13 29-30 29z m-106 0c-16 0-29-13-29-29l0-152 59 0 0 152c0 16-13 29-30 29z m-106 0c-16 0-29-13-29-29l0-152 59 0 0 152c0 16-14 29-30 29z m-102 16l417 0 0-16-1 0c-14-2-25-15-25-29l0-152 30 0 0-14-425 0 0 14 30 0 0 152c0 14-11 27-25 29l-1 0z m211 144l220-77 0-46-445 0 0 45z"/>
<glyph glyph-name="other-shopping" unicode="&#57387;" d="M427 115c32 0 57-26 57-58 0-31-25-57-57-57-32 0-58 26-58 57 0 32 26 58 58 58z m-284 0c32 0 57-26 57-58 0-31-25-57-57-57-32 0-58 26-58 57 0 32 26 58 58 58z m-131 397l88 0c6 0 11-5 11-11l0-48 400 0 0-156c0-7-5-13-11-15l-314-89c-27-8-27-21 6-21l319 0 0-43c0-6-5-11-11-11l-372 0c-6 0-11 5-11 11l0 43-5 26-55 257-56 0 0 46c0 6 5 11 11 11z"/>
</font>
</defs>
</svg>
